<svg width="28" height="28" viewBox="0 0 28 28" fill="none" xmlns="http://www.w3.org/2000/svg">
<rect x="3.98242" y="23.8945" width="27.7077" height="0.440556" rx="0.220278" transform="rotate(-45 3.98242 23.8945)" stroke="#B31217" stroke-width="0.440556"/>
<rect x="3.08398" y="14.0552" width="14.6852" height="0.881113" transform="rotate(-45 3.08398 14.0552)" fill="#B31217"/>
<rect width="7.44051" height="7.44051" rx="3.72025" fill="url(#paint0_linear_43_2668)"/>
<rect y="10.2795" width="7.44051" height="7.44051" rx="3.72025" fill="url(#paint1_linear_43_2668)"/>
<rect x="10.2793" y="10.2795" width="7.44051" height="7.44051" rx="3.72025" fill="url(#paint2_linear_43_2668)"/>
<rect y="20.5593" width="7.44051" height="7.44051" rx="3.72025" fill="url(#paint3_linear_43_2668)"/>
<rect x="10.2793" width="7.44051" height="7.44051" rx="3.72025" fill="url(#paint4_linear_43_2668)"/>
<rect x="20.5596" width="7.44051" height="7.44051" rx="3.72025" fill="url(#paint5_linear_43_2668)"/>
<rect opacity="0.05" x="10.2793" y="20.5596" width="7.44051" height="7.44051" rx="3.72025" fill="black"/>
<rect opacity="0.05" x="20.5586" y="10.2795" width="7.44051" height="7.44051" rx="3.72025" fill="black"/>
<rect opacity="0.05" x="20.5586" y="20.5596" width="7.44051" height="7.44051" rx="3.72025" fill="black"/>
<defs>
<linearGradient id="paint0_linear_43_2668" x1="3.74556" y1="0.303694" x2="3.74556" y2="7.18743" gradientUnits="userSpaceOnUse">
<stop stop-color="#E52D27"/>
<stop offset="1" stop-color="#C41C25"/>
</linearGradient>
<linearGradient id="paint1_linear_43_2668" x1="3.74556" y1="10.5832" x2="3.74556" y2="17.467" gradientUnits="userSpaceOnUse">
<stop stop-color="#E52D27"/>
<stop offset="1" stop-color="#C41C25"/>
</linearGradient>
<linearGradient id="paint2_linear_43_2668" x1="14.0249" y1="10.5832" x2="14.0249" y2="17.467" gradientUnits="userSpaceOnUse">
<stop stop-color="#E52D27"/>
<stop offset="1" stop-color="#B31217"/>
</linearGradient>
<linearGradient id="paint3_linear_43_2668" x1="3.74556" y1="20.863" x2="3.74556" y2="27.7468" gradientUnits="userSpaceOnUse">
<stop stop-color="#E52D27"/>
<stop offset="1" stop-color="#C41C25"/>
</linearGradient>
<linearGradient id="paint4_linear_43_2668" x1="14.0249" y1="0.303694" x2="14.0249" y2="7.18743" gradientUnits="userSpaceOnUse">
<stop stop-color="#E52D27"/>
<stop offset="1" stop-color="#C41C25"/>
</linearGradient>
<linearGradient id="paint5_linear_43_2668" x1="24.3051" y1="0.303694" x2="24.3051" y2="7.18743" gradientUnits="userSpaceOnUse">
<stop stop-color="#E52D27"/>
<stop offset="1" stop-color="#C41C25"/>
</linearGradient>
</defs>
</svg>
