<svg width="44" height="44" viewBox="0 0 44 44" fill="none" xmlns="http://www.w3.org/2000/svg">
<g filter="url(#filter0_d_43_1717)">
<rect x="2.00583" y="1.00292" width="39.9884" height="39.2365" rx="8" fill="white" fill-opacity="0.15"/>
<path d="M26.152 12.6301C27.2522 12.6333 28.3065 13.0553 29.0845 13.8039C29.8625 14.5526 30.3011 15.5671 30.3044 16.6259V24.6165C30.3011 25.6753 29.8625 26.6898 29.0845 27.4384C28.3065 28.1871 27.2522 28.6091 26.152 28.6122H17.8481C16.7478 28.6091 15.6935 28.1871 14.9155 27.4384C14.1375 26.6898 13.699 25.6753 13.6957 24.6165V16.6259C13.699 15.5671 14.1375 14.5526 14.9155 13.8039C15.6935 13.0553 16.7478 12.6333 17.8481 12.6301H26.152ZM26.152 11.0321H17.8481C14.6508 11.0321 12.035 13.5492 12.035 16.6259V24.6165C12.035 27.6931 14.6508 30.2103 17.8481 30.2103H26.152C29.3492 30.2103 31.965 27.6931 31.965 24.6165V16.6259C31.965 13.5492 29.3492 11.0321 26.152 11.0321Z" fill="white"/>
<path d="M27.3978 16.6259C27.1515 16.6259 26.9106 16.5556 26.7058 16.4239C26.501 16.2922 26.3413 16.105 26.247 15.886C26.1527 15.6669 26.1281 15.4259 26.1761 15.1934C26.2242 14.9609 26.3428 14.7473 26.517 14.5797C26.6912 14.4121 26.9132 14.2979 27.1548 14.2517C27.3964 14.2054 27.6469 14.2291 27.8745 14.3199C28.1021 14.4106 28.2967 14.5642 28.4335 14.7613C28.5704 14.9585 28.6435 15.1902 28.6435 15.4273C28.6438 15.5848 28.6118 15.7408 28.5494 15.8864C28.4869 16.0319 28.3951 16.1642 28.2794 16.2756C28.1637 16.387 28.0262 16.4752 27.8749 16.5353C27.7236 16.5955 27.5615 16.6262 27.3978 16.6259ZM22.0003 17.4247C22.6573 17.4247 23.2995 17.6122 23.8458 17.9634C24.392 18.3147 24.8178 18.8139 25.0692 19.398C25.3206 19.9821 25.3864 20.6248 25.2583 21.2448C25.1301 21.8649 24.8137 22.4344 24.3491 22.8815C23.8846 23.3285 23.2927 23.633 22.6483 23.7563C22.0039 23.8796 21.336 23.8163 20.729 23.5744C20.1221 23.3325 19.6033 22.9228 19.2383 22.3971C18.8733 21.8714 18.6784 21.2534 18.6784 20.6212C18.6794 19.7737 19.0297 18.9612 19.6524 18.3619C20.2752 17.7627 21.1195 17.4256 22.0003 17.4247ZM22.0003 15.8267C21.0148 15.8267 20.0515 16.1079 19.2321 16.6347C18.4127 17.1615 17.7741 17.9103 17.397 18.7864C17.0199 19.6625 16.9212 20.6265 17.1135 21.5566C17.3057 22.4866 17.7803 23.3409 18.4771 24.0115C19.1739 24.682 20.0617 25.1386 21.0282 25.3236C21.9947 25.5086 22.9965 25.4137 23.907 25.0508C24.8174 24.6879 25.5956 24.0734 26.1431 23.2849C26.6906 22.4965 26.9828 21.5695 26.9828 20.6212C26.9828 19.3496 26.4578 18.1301 25.5234 17.231C24.589 16.3318 23.3217 15.8267 22.0003 15.8267Z" fill="white"/>
</g>
<defs>
<filter id="filter0_d_43_1717" x="0" y="0" width="44" height="43.2481" filterUnits="userSpaceOnUse" color-interpolation-filters="sRGB">
<feFlood flood-opacity="0" result="BackgroundImageFix"/>
<feColorMatrix in="SourceAlpha" type="matrix" values="0 0 0 0 0 0 0 0 0 0 0 0 0 0 0 0 0 0 127 0" result="hardAlpha"/>
<feOffset dy="1"/>
<feGaussianBlur stdDeviation="1"/>
<feColorMatrix type="matrix" values="0 0 0 0 0.0627451 0 0 0 0 0.0941176 0 0 0 0 0.156863 0 0 0 0.05 0"/>
<feBlend mode="normal" in2="BackgroundImageFix" result="effect1_dropShadow_43_1717"/>
<feBlend mode="normal" in="SourceGraphic" in2="effect1_dropShadow_43_1717" result="shape"/>
</filter>
</defs>
</svg>
