<svg width="28" height="28" viewBox="0 0 28 28" fill="none" xmlns="http://www.w3.org/2000/svg">
<path d="M23.6945 12.7812C23.5947 13.0351 23.3071 13.1604 23.0518 13.0611C22.7968 12.9621 22.6706 12.6756 22.7704 12.4219C22.8828 12.1377 23.0228 11.8648 23.1858 11.6073C23.3511 11.3472 23.5394 11.1043 23.7475 10.8825C23.9339 10.6831 24.2477 10.6718 24.4482 10.8573C24.6485 11.0428 24.6597 11.3551 24.4732 11.5545C24.3057 11.7333 24.155 11.9269 24.0247 12.1327C23.8959 12.3356 23.7847 12.5528 23.6945 12.7812ZM23.3075 19.2799C23.5219 19.4484 23.5583 19.7579 23.389 19.9712C23.2193 20.1845 22.9082 20.2208 22.6938 20.0523C21.8102 19.3565 21.0881 18.4674 20.5931 17.4508C20.1155 16.4691 19.8476 15.369 19.8476 14.209C19.8476 13.0488 20.1156 11.9488 20.5931 10.9672C21.0881 9.95051 21.8102 9.06149 22.6938 8.36573C22.9082 8.19703 23.2192 8.23352 23.389 8.44663C23.5584 8.65992 23.5219 8.96967 23.3075 9.1381C22.5426 9.7404 21.917 10.5118 21.4864 11.396C21.0732 12.2448 20.8418 13.1992 20.8418 14.2091C20.8418 15.219 21.0732 16.1733 21.4864 17.022C21.917 17.9062 22.5426 18.6776 23.3075 19.2799ZM6.56272 21.6486C6.32581 21.7851 6.02232 21.7046 5.88512 21.4691C5.74792 21.2332 5.82877 20.9315 6.06568 20.795C6.43393 20.5823 6.83201 20.4156 7.25131 20.3036C7.65907 20.1952 8.08623 20.1367 8.5251 20.1367C9.7892 20.1367 10.9434 20.6148 11.8149 21.3994C12.6936 22.1904 13.2831 23.294 13.4062 24.5333C13.4328 24.8042 13.2338 25.0456 12.9616 25.0723C12.6893 25.0987 12.4469 24.9006 12.4201 24.6299C12.3219 23.641 11.8516 22.7605 11.151 22.1295C10.4582 21.5059 9.53694 21.1256 8.5252 21.1256C8.17148 21.1256 7.83011 21.1717 7.5075 21.2578C7.17199 21.3476 6.85487 21.48 6.56272 21.6486ZM10.7856 18.9566C10.5296 18.8618 10.399 18.578 10.4945 18.3231C10.5898 18.0683 10.8751 17.9387 11.1312 18.0336C12.4976 18.538 13.6753 19.4269 14.5301 20.5665C15.3679 21.6832 15.8983 23.0426 15.9966 24.5207C16.0138 24.7925 15.806 25.027 15.5325 25.044C15.2593 25.0612 15.0236 24.8543 15.0066 24.5825C14.9213 23.3042 14.4613 22.1267 13.7344 21.1575C12.9904 20.1659 11.9685 19.3936 10.7856 18.9566ZM5.08513 19.5353C4.85253 19.6794 4.54638 19.6085 4.40158 19.377C4.25679 19.1454 4.32813 18.8411 4.56092 18.697C5.14522 18.3336 5.78414 18.0478 6.46184 17.8548C7.1184 17.6679 7.81063 17.5678 8.5251 17.5678C8.60751 17.5678 8.71472 17.5705 8.84579 17.576C9.1191 17.5866 9.33222 17.816 9.32143 18.0878C9.31082 18.3597 9.08022 18.5715 8.80701 18.561C8.73868 18.5581 8.64437 18.5567 8.52501 18.5567C7.90256 18.5567 7.30161 18.6433 6.73368 18.8049C6.1459 18.9724 5.59187 19.2202 5.08513 19.5353ZM17.332 22.8172C17.2653 22.5529 17.4273 22.2846 17.6931 22.2184C17.9588 22.1524 18.2282 22.3133 18.2945 22.5776C18.3439 22.7734 18.3886 22.9803 18.4288 23.1975C18.4687 23.4148 18.5014 23.6243 18.5252 23.8242C18.5572 24.0951 18.3626 24.3407 18.0901 24.3727C17.8181 24.4045 17.5709 24.2109 17.539 23.94C17.5151 23.7393 17.4865 23.5509 17.4541 23.3754C17.4213 23.1956 17.3804 23.0091 17.332 22.8172ZM18.3328 18.7413C18.1851 18.5121 18.252 18.2068 18.4824 18.0597C18.7128 17.9125 19.0199 17.9791 19.1676 18.2084C19.5804 18.8456 19.9381 19.5248 20.2329 20.2388C20.522 20.9393 20.7494 21.6707 20.9088 22.4261C20.9642 22.6925 20.7924 22.9539 20.5244 23.0093C20.2564 23.0647 19.9936 22.8935 19.9382 22.627C19.7914 21.9298 19.5823 21.2566 19.3162 20.6134C19.1577 20.229 18.9783 19.8544 18.7795 19.4904C18.7128 19.3845 18.6582 19.2946 18.6158 19.222C18.5685 19.1405 18.5164 19.0471 18.4595 18.9412C18.418 18.8741 18.3756 18.8075 18.3328 18.7413ZM12.42 3.78793C12.4468 3.51704 12.6893 3.31903 12.9615 3.34569C13.2337 3.37235 13.4327 3.61358 13.4061 3.88438C13.283 5.12365 12.6935 6.22725 11.8146 7.01845C10.9434 7.80311 9.78911 8.28102 8.52501 8.28102C8.08623 8.28102 7.65897 8.22269 7.25121 8.11404C6.83209 8.00202 6.43384 7.83541 6.06577 7.62285C5.82886 7.48644 5.74783 7.18452 5.88503 6.94884C6.02233 6.71316 6.32591 6.63263 6.56263 6.76922C6.85478 6.93792 7.17209 7.07023 7.50741 7.15986C7.83012 7.24594 8.1712 7.29208 8.52501 7.29208C9.53684 7.29208 10.458 6.91199 11.1506 6.28831C11.8516 5.65734 12.3218 4.77687 12.42 3.78793ZM13.9603 6.94238C14.1103 6.71516 14.4174 6.65211 14.6455 6.80134C14.874 6.95057 14.9373 7.25604 14.7873 7.48299C14.1054 8.51588 13.1735 9.36987 12.0778 9.95861C11.0198 10.527 9.80923 10.85 8.52501 10.85C7.81054 10.85 7.11812 10.7498 6.46174 10.563C5.78423 10.3701 5.14513 10.0841 4.56083 9.72048C4.32822 9.57661 4.25697 9.27205 4.40176 9.04065C4.54656 8.80925 4.85243 8.73809 5.08531 8.88214C5.59205 9.19762 6.14608 9.44531 6.73368 9.61265C7.30143 9.77425 7.90256 9.86088 8.52501 9.86088C9.64212 9.86088 10.6921 9.58134 11.6081 9.08933C12.5607 8.57748 13.37 7.83678 13.9603 6.94238ZM15.0066 3.83515C15.0237 3.56344 15.2593 3.35661 15.5325 3.37381C15.806 3.39064 16.0138 3.62523 15.9966 3.89712C15.9743 4.23162 15.9289 4.56357 15.8622 4.8907C15.7949 5.22074 15.7055 5.54232 15.5965 5.85389C15.5064 6.11068 15.2236 6.24654 14.9656 6.157C14.7074 6.06737 14.5708 5.78637 14.6609 5.5294C14.7557 5.25833 14.8332 4.97897 14.8915 4.69388C14.9481 4.41698 14.9868 4.13043 15.0066 3.83515ZM5.55985 11.9394C5.81816 12.0281 5.95546 12.3084 5.86637 12.5652C5.77765 12.8222 5.49583 12.9587 5.23752 12.8703C4.95818 12.7744 4.68779 12.6684 4.42766 12.5528C4.16166 12.4349 3.90161 12.3058 3.6486 12.1661C3.40969 12.0341 3.32353 11.7338 3.45634 11.4959C3.58925 11.2582 3.891 11.1727 4.13019 11.3048C4.35813 11.4305 4.59229 11.5469 4.83157 11.6529C5.07278 11.7599 5.31609 11.8558 5.55985 11.9394ZM19.9381 5.79101C19.9939 5.5244 20.2563 5.35314 20.5243 5.40856C20.7927 5.46389 20.9645 5.72531 20.9087 5.99193C20.8682 6.18466 20.8275 6.36074 20.787 6.51898C20.7435 6.68796 20.6951 6.86112 20.6415 7.03747C20.5633 7.29872 20.2868 7.44759 20.0244 7.36961C19.7616 7.29208 19.612 7.01682 19.6902 6.75557C19.7367 6.60242 19.7814 6.44191 19.8242 6.27575C19.8692 6.09967 19.9075 5.93788 19.9381 5.79101ZM24.4732 16.8634C24.6596 17.0627 24.6485 17.3751 24.4482 17.5604C24.2477 17.7459 23.9339 17.7346 23.7475 17.5352C23.3317 17.0915 22.9975 16.5695 22.7698 15.9945C22.5506 15.4403 22.43 14.8377 22.43 14.2089C22.43 13.9358 22.6525 13.7144 22.9268 13.7144C23.2015 13.7144 23.4241 13.9358 23.4241 14.2089C23.4241 14.7138 23.5198 15.1949 23.694 15.6354C23.8751 16.0933 24.1415 16.5092 24.4732 16.8634Z" fill="#F61B45"/>
<path d="M4.13028 17.113C3.89118 17.2452 3.58934 17.1596 3.45643 16.9217C3.32353 16.684 3.4097 16.3837 3.64871 16.2515C4.38156 15.8472 5.17248 15.531 6.00576 15.3172C6.816 15.1094 7.66053 14.999 8.5251 14.999C10.5074 14.999 12.357 15.5693 13.9163 16.5544C15.1646 17.3429 16.2271 18.399 17.0229 19.6418L16.2522 20.273C15.5289 19.1106 14.5464 18.1227 13.3845 17.3888C11.9801 16.5017 10.3132 15.9877 8.5252 15.9877C7.73435 15.9877 6.97223 16.0863 6.25054 16.2713C5.50342 16.463 4.79206 16.7478 4.13028 17.113Z" fill="#F61B45"/>
<path d="M17.5389 4.47777C17.5709 4.20687 17.8181 4.01332 18.09 4.04535C18.3621 4.0772 18.5568 4.3228 18.5248 4.59369C18.2262 7.09207 17.0025 9.30936 15.2037 10.8969C13.535 12.3691 11.3723 13.299 8.99633 13.4082V12.4182C11.1229 12.3103 13.0556 11.4754 14.5472 10.159C16.1673 8.72944 17.2698 6.73091 17.5389 4.47777Z" fill="#F61B45"/>
<path d="M17.6376 12.1316C16.8605 12.934 15.9773 13.6339 15.0111 14.209C15.4614 14.4773 15.8942 14.7731 16.3074 15.0941C16.9647 15.6051 17.5695 16.1782 18.1114 16.8038C18.2904 17.0095 18.2677 17.3209 18.0607 17.4992C17.8538 17.6773 17.5408 17.6547 17.3617 17.4488C16.8597 16.8692 16.3018 16.34 15.6977 15.8704C15.0993 15.4054 14.452 14.9962 13.764 14.6515L13.762 14.6504L13.7598 14.6493L13.7513 14.6451L13.7483 14.6434L13.741 14.6393L13.7373 14.6373L13.7306 14.6335L13.7263 14.6311L13.7204 14.6274L13.7157 14.6245L13.7103 14.621L13.7051 14.6176L13.7002 14.6142L13.695 14.6105L13.6848 14.6032L13.6809 14.6001L13.6752 14.5957L13.6714 14.5927L13.6655 14.5878L13.6621 14.585L13.6563 14.5798L13.6529 14.577L13.647 14.5716L13.644 14.5691L13.6382 14.5633L13.6352 14.5605L13.6294 14.5548L13.6266 14.5518L13.621 14.5461L13.6183 14.5431L13.6129 14.5371L13.61 14.534L13.6048 14.5282L13.602 14.5247L13.5973 14.5188L13.5943 14.515L13.5896 14.5095L13.5867 14.5055L13.5826 14.4999L13.5794 14.4955L13.5757 14.4903L13.5721 14.4853L13.5689 14.4803L13.5651 14.4749L13.5624 14.4703L13.5585 14.4642L13.5563 14.4601L13.5523 14.4532L13.5501 14.4497L13.546 14.4423L13.5446 14.4393L13.5403 14.431L13.539 14.4289L13.5345 14.4196L13.5338 14.4181L13.5293 14.4081L13.5289 14.4072L13.5243 14.3965L13.52 14.3855L13.5196 14.3848L13.5157 14.3744L13.5153 14.3732L13.5119 14.3632L13.5112 14.3615L13.5082 14.3519C13.5049 14.3404 13.5018 14.3289 13.4993 14.3175L13.4984 14.3141L13.4966 14.306C13.4904 14.2745 13.4872 14.243 13.487 14.2116V14.2064C13.4872 14.1749 13.4904 14.1432 13.4966 14.1119L13.4984 14.1038L13.4993 14.1003C13.5017 14.0888 13.5049 14.0773 13.5082 14.0661L13.5112 14.0564L13.5119 14.0546L13.5157 14.0435L13.5196 14.0329L13.52 14.0324L13.5243 14.0215L13.5289 14.0106L13.5293 14.0096L13.5338 13.9996L13.5345 13.9984L13.539 13.9891L13.5403 13.9869L13.5446 13.9785L13.546 13.9756L13.5501 13.9681L13.5523 13.9645L13.5563 13.9579L13.5585 13.9536L13.5624 13.9477L13.5651 13.9429L13.5689 13.9375L13.5721 13.9327L13.5757 13.9277L13.5794 13.9225L13.5826 13.918L13.5867 13.9125L13.5896 13.9084L13.5943 13.9026L13.5973 13.8989L13.602 13.893L13.6048 13.8896L13.61 13.8839L13.6129 13.8805L13.6183 13.8746L13.621 13.8718L13.6294 13.8629L13.6352 13.8571L13.6382 13.8543L13.644 13.8488L13.647 13.8461L13.6529 13.8406L13.6563 13.8378L13.6621 13.8328L13.6655 13.8298L13.6714 13.825L13.6752 13.8223L13.6809 13.8176L13.6848 13.8145L13.695 13.8072L13.7002 13.8035L13.7051 13.8001L13.7103 13.7967L13.7157 13.7933L13.7204 13.7903L13.7263 13.7866L13.7306 13.7841L13.7373 13.7802L13.741 13.7782L13.7483 13.7741L13.7513 13.7726L13.7598 13.7681L13.762 13.767L13.764 13.7661C14.9467 13.1736 16.0138 12.3864 16.9233 11.4476C17.4666 10.8868 17.9537 10.2718 18.3754 9.61194L19.2814 10.0299C18.8081 10.7883 18.2563 11.4928 17.6376 12.1316Z" fill="#F61B45"/>
<path fill-rule="evenodd" clip-rule="evenodd" d="M3.37161 14.209C3.37161 19.9912 8.1301 24.6787 14 24.6787C19.8699 24.6787 24.6284 19.9912 24.6284 14.209C24.6284 8.42667 19.8699 3.7392 14 3.7392C8.1301 3.7392 3.37161 8.42667 3.37161 14.209ZM14 2.50746C7.43953 2.50746 2.12121 7.7464 2.12121 14.209C2.12121 20.6715 7.43953 25.9104 14 25.9104C20.5605 25.9104 25.8788 20.6715 25.8788 14.209C25.8788 7.7464 20.5605 2.50746 14 2.50746Z" fill="#F61B45"/>
<path fill-rule="evenodd" clip-rule="evenodd" d="M7.4354 12.9772C7.4354 13.3174 7.71531 13.5931 8.0606 13.5931C8.40589 13.5931 8.6858 13.3174 8.6858 12.9772C8.6858 12.6371 8.40589 12.3614 8.0606 12.3614C7.71531 12.3614 7.4354 12.6371 7.4354 12.9772ZM8.0606 11.7455C7.37002 11.7455 6.8102 12.297 6.8102 12.9772C6.8102 13.6575 7.37002 14.209 8.0606 14.209C8.75117 14.209 9.311 13.6575 9.311 12.9772C9.311 12.297 8.75117 11.7455 8.0606 11.7455Z" fill="#F61B45"/>
<path fill-rule="evenodd" clip-rule="evenodd" d="M16.5008 20.6756C16.5008 21.0157 16.7807 21.2914 17.126 21.2914C17.4713 21.2914 17.7512 21.0157 17.7512 20.6756C17.7512 20.3354 17.4713 20.0597 17.126 20.0597C16.7807 20.0597 16.5008 20.3354 16.5008 20.6756ZM17.126 19.4438C16.4354 19.4438 15.8756 19.9953 15.8756 20.6756C15.8756 21.3558 16.4354 21.9073 17.126 21.9073C17.8166 21.9073 18.3764 21.3558 18.3764 20.6756C18.3764 19.9953 17.8166 19.4438 17.126 19.4438Z" fill="#F61B45"/>
<path fill-rule="evenodd" clip-rule="evenodd" d="M18.6891 8.97407C18.6891 9.31421 18.969 9.58994 19.3143 9.58994C19.6595 9.58994 19.9395 9.31421 19.9395 8.97407C19.9395 8.63394 19.6595 8.3582 19.3143 8.3582C18.969 8.3582 18.6891 8.63394 18.6891 8.97407ZM19.3143 7.74234C18.6237 7.74234 18.0639 8.2938 18.0639 8.97407C18.0639 9.65434 18.6237 10.2058 19.3143 10.2058C20.0048 10.2058 20.5647 9.65434 20.5647 8.97407C20.5647 8.2938 20.0048 7.74234 19.3143 7.74234Z" fill="#F61B45"/>
<path d="M13.2857 1.27252L13.2587 0.436913C8.82046 0.664996 4.92943 2.92922 2.53006 6.29924L3.23626 6.76311C5.48786 3.61043 9.13071 1.49158 13.2857 1.27252Z" fill="#F61B45"/>
<path d="M14.7143 1.27252L14.7413 0.436913C20.6791 0.742058 25.6374 4.69167 27.3547 10.0579L26.5391 10.2902C24.922 5.26442 20.2771 1.56581 14.7143 1.27252Z" fill="#F61B45"/>
<path d="M27.1515 14.209C27.1515 13.3351 27.0637 12.4815 26.8962 11.6561L27.7242 11.4714C27.9051 12.3562 28 13.2717 28 14.209C28 16.334 27.5121 18.3467 26.6406 20.1444L25.9266 19.676C26.7126 18.0149 27.1515 16.1624 27.1515 14.209Z" fill="#F61B45"/>
<path d="M14 27.1642C18.7452 27.1642 22.9034 24.6886 25.2163 20.977L26.018 21.287C23.572 25.3083 19.1051 28 14 28C11.7414 28 9.60763 27.4731 7.71858 26.5373L8.00532 25.7431C9.80296 26.6516 11.8407 27.1642 14 27.1642Z" fill="#F61B45"/>
<path d="M6.42205 25.807L6.9574 25.1521C4.36372 23.5289 2.38632 21.0356 1.44857 18.0893L0.636364 18.3319C1.62386 21.441 3.69864 24.0767 6.42205 25.807Z" fill="#F61B45"/>
<path d="M0 14.209C0 15.1571 0.0971249 16.0828 0.282108 16.9771L1.11183 16.8013C0.939141 15.9637 0.848485 15.0968 0.848485 14.209C0.848485 11.9182 1.45204 9.76631 2.51106 7.89918L1.80405 7.43212C0.655507 9.43355 0 11.7458 0 14.209Z" fill="#F61B45"/>
<path fill-rule="evenodd" clip-rule="evenodd" d="M26.7273 10.8657C26.7273 11.0965 26.9172 11.2836 27.1515 11.2836C27.3858 11.2836 27.5758 11.0965 27.5758 10.8657C27.5758 10.6349 27.3858 10.4478 27.1515 10.4478C26.9172 10.4478 26.7273 10.6349 26.7273 10.8657ZM27.1515 10.0299C26.6829 10.0299 26.303 10.4041 26.303 10.8657C26.303 11.3273 26.6829 11.7015 27.1515 11.7015C27.6201 11.7015 28 11.3273 28 10.8657C28 10.4041 27.6201 10.0299 27.1515 10.0299Z" fill="#F61B45"/>
<path fill-rule="evenodd" clip-rule="evenodd" d="M25.4545 20.4776C25.4545 20.7084 25.6445 20.8955 25.8788 20.8955C26.1131 20.8955 26.303 20.7084 26.303 20.4776C26.303 20.2468 26.1131 20.0597 25.8788 20.0597C25.6445 20.0597 25.4545 20.2468 25.4545 20.4776ZM25.8788 19.6418C25.4102 19.6418 25.0303 20.016 25.0303 20.4776C25.0303 20.9392 25.4102 21.3134 25.8788 21.3134C26.3474 21.3134 26.7273 20.9392 26.7273 20.4776C26.7273 20.016 26.3474 19.6418 25.8788 19.6418Z" fill="#F61B45"/>
<path fill-rule="evenodd" clip-rule="evenodd" d="M6.78788 25.9104C6.78788 26.1413 6.97782 26.3284 7.21212 26.3284C7.44642 26.3284 7.63636 26.1413 7.63636 25.9104C7.63636 25.6796 7.44642 25.4925 7.21212 25.4925C6.97782 25.4925 6.78788 25.6796 6.78788 25.9104ZM7.21212 25.0746C6.74352 25.0746 6.36364 25.4488 6.36364 25.9104C6.36364 26.3721 6.74352 26.7463 7.21212 26.7463C7.68073 26.7463 8.06061 26.3721 8.06061 25.9104C8.06061 25.4488 7.68073 25.0746 7.21212 25.0746Z" fill="#F61B45"/>
<path fill-rule="evenodd" clip-rule="evenodd" d="M0.424242 17.5522C0.424242 17.783 0.614182 17.9701 0.848485 17.9701C1.08279 17.9701 1.27273 17.783 1.27273 17.5522C1.27273 17.3214 1.08279 17.1343 0.848485 17.1343C0.614182 17.1343 0.424242 17.3214 0.424242 17.5522ZM0.848485 16.7164C0.37988 16.7164 0 17.0906 0 17.5522C0 18.0138 0.37988 18.3881 0.848485 18.3881C1.31709 18.3881 1.69697 18.0138 1.69697 17.5522C1.69697 17.0906 1.31709 16.7164 0.848485 16.7164Z" fill="#F61B45"/>
<path fill-rule="evenodd" clip-rule="evenodd" d="M2.12121 7.10448C2.12121 7.33528 2.31115 7.52239 2.54545 7.52239C2.77976 7.52239 2.9697 7.33528 2.9697 7.10448C2.9697 6.87367 2.77976 6.68657 2.54545 6.68657C2.31115 6.68657 2.12121 6.87367 2.12121 7.10448ZM2.54545 6.26866C2.07685 6.26866 1.69697 6.64287 1.69697 7.10448C1.69697 7.56609 2.07685 7.9403 2.54545 7.9403C3.01406 7.9403 3.39394 7.56609 3.39394 7.10448C3.39394 6.64287 3.01406 6.26866 2.54545 6.26866Z" fill="#F61B45"/>
<path fill-rule="evenodd" clip-rule="evenodd" d="M13.5758 0.835821C13.5758 1.06663 13.7657 1.25373 14 1.25373C14.2343 1.25373 14.4242 1.06663 14.4242 0.835821C14.4242 0.605015 14.2343 0.41791 14 0.41791C13.7657 0.41791 13.5758 0.605015 13.5758 0.835821ZM14 0C13.5314 0 13.1515 0.37421 13.1515 0.835821C13.1515 1.29743 13.5314 1.67164 14 1.67164C14.4686 1.67164 14.8485 1.29743 14.8485 0.835821C14.8485 0.37421 14.4686 0 14 0Z" fill="#F61B45"/>
</svg>
