<svg width="48" height="48" viewBox="0 0 48 48" fill="none" xmlns="http://www.w3.org/2000/svg">
<g clip-path="url(#clip0_43_2584)">
<path d="M24 48C37.2548 48 48 37.2548 48 24C48 10.7452 37.2548 0 24 0C10.7452 0 0 10.7452 0 24C0 37.2548 10.7452 48 24 48Z" fill="#F0F0F0"/>
<path d="M32.3484 23.9991C32.3484 26.0861 28.611 31.3035 24.0006 31.3035C19.3903 31.3035 15.6528 26.0861 15.6528 23.9991C15.6528 19.3887 19.3903 15.6514 24.0006 15.6514C28.611 15.6514 32.3484 19.3887 32.3484 23.9991Z" fill="#D80027"/>
<path d="M32.3484 23.999C32.3484 28.6095 28.611 32.3468 24.0006 32.3468C19.3903 32.3468 15.6528 28.6095 15.6528 23.999" fill="#0052B4"/>
<path d="M35.067 29.1651L32.8535 31.3787L34.3292 32.8544L36.5427 30.6408L35.067 29.1651Z" fill="black"/>
<path d="M31.3771 32.8536L29.1636 35.0671L30.6393 36.5428L32.8528 34.3293L31.3771 32.8536Z" fill="black"/>
<path d="M39.4943 33.5895L37.2808 35.803L38.7565 37.2787L40.97 35.0652L39.4943 33.5895Z" fill="black"/>
<path d="M35.8063 37.2818L33.5928 39.4954L35.0685 40.9711L37.282 38.7575L35.8063 37.2818Z" fill="black"/>
<path d="M37.2814 31.3793L35.0679 33.5928L36.5436 35.0685L38.7571 32.855L37.2814 31.3793Z" fill="black"/>
<path d="M33.5919 35.0677L31.3784 37.2812L32.8541 38.7569L35.0676 36.5434L33.5919 35.0677Z" fill="black"/>
<path d="M31.3785 10.7164L37.2812 16.6191L38.7569 15.1434L32.8542 9.24074L31.3785 10.7164Z" fill="black"/>
<path d="M29.1654 12.9322L31.3789 15.1458L32.8545 13.6701L30.641 11.4566L29.1654 12.9322Z" fill="black"/>
<path d="M32.8549 16.62L35.0684 18.8335L36.544 17.3579L34.3305 15.1444L32.8549 16.62Z" fill="black"/>
<path d="M33.5902 8.5045L35.8037 10.718L37.2794 9.24232L35.0659 7.02881L33.5902 8.5045Z" fill="black"/>
<path d="M37.2816 12.1954L39.4951 14.4089L40.9708 12.9332L38.7573 10.7197L37.2816 12.1954Z" fill="black"/>
<path d="M14.4066 39.496L8.50391 33.5933L7.02821 35.069L12.9309 40.9717L14.4066 39.496Z" fill="black"/>
<path d="M16.6212 37.2799L14.4077 35.0664L12.9321 36.542L15.1456 38.7555L16.6212 37.2799Z" fill="black"/>
<path d="M12.9318 33.5919L10.7183 31.3784L9.24257 32.8541L11.4561 35.0676L12.9318 33.5919Z" fill="black"/>
<path d="M18.8348 35.0673L12.9321 29.1646L11.4564 30.6402L17.3592 36.543L18.8348 35.0673Z" fill="black"/>
<path d="M8.50549 14.4093L14.4082 8.50659L12.9325 7.0309L7.02979 12.9336L8.50549 14.4093Z" fill="black"/>
<path d="M10.7174 16.6195L16.6201 10.7168L15.1444 9.2411L9.2417 15.1438L10.7174 16.6195Z" fill="black"/>
<path d="M12.9327 18.8341L18.8354 12.9314L17.3598 11.4558L11.4571 17.3585L12.9327 18.8341Z" fill="black"/>
</g>
<defs>
<clipPath id="clip0_43_2584">
<rect width="48" height="48" fill="white"/>
</clipPath>
</defs>
</svg>
