<svg width="30" height="28" viewBox="0 0 30 28" fill="none" xmlns="http://www.w3.org/2000/svg">
<path d="M17.2687 11.3467C18.8498 9.4312 23.0813 1.72268 19.1824 0.242037C17.0388 -0.572014 15.047 1.61453 14.6647 3.52135C14.0849 6.41298 15.8745 8.98265 17.2687 11.3467Z" fill="#509FF8"/>
<path d="M21.1815 0.0573983V1.13734C23.92 0.448966 29.0066 3.57874 29.0066 3.57874C29.0066 3.57874 25.0939 -0.529569 21.1815 0.0573983Z" fill="#509FF8"/>
<path d="M0.83559 26.2152H1.22686C-0.252406 19.0444 1.49842 12.7921 6.72032 7.43997C8.74475 5.36503 11.9125 4.0693 13.3562 1.56517C2.89762 3.58185 -2.11201 17.1533 0.83559 26.2152Z" fill="#509FF8"/>
<path d="M18.0516 15.2596C20.3989 14.652 31.4716 12.1762 27.5957 7.56007C24.6079 4.00159 18.9612 13.0972 18.0516 15.2596Z" fill="#646466"/>
<path d="M16.4862 15.6508C15.5191 13.1929 14.2527 9.08439 11.0085 9.08439C8.0934 9.08439 4.4058 14.2131 7.22016 16.5342C9.44594 18.3699 14.0971 16.3238 16.4862 15.6508Z" fill="#646466"/>
<path d="M18.0516 17.2158C18.0984 18.2881 18.2166 19.3064 18.5054 20.3456C20.7451 28.4053 31.3685 17.2983 21.9643 16.8653C20.6544 16.8049 19.3532 17.1131 18.0516 17.2158Z" fill="#646466"/>
<path d="M16.4862 17.6073C13.5316 18.4764 10.2274 20.4826 9.05415 23.4763C8.50899 24.8674 8.46924 27.3722 10.2684 27.8929C14.3626 29.0777 15.7829 20.0855 16.4862 17.6073Z" fill="#646466"/>
</svg>
