<svg width="33" height="27" viewBox="0 0 33 27" fill="none" xmlns="http://www.w3.org/2000/svg">
<path d="M8.90411 3.88916L11.0065 10.358H17.8082L12.3097 14.3629L14.4121 20.8317L8.90411 16.8363L3.39612 20.8317L5.50799 14.3629L0 10.358H6.80175L8.90411 3.88916Z" fill="#FFDA44"/>
<path d="M24.4471 26.7877L22.8394 24.809L20.4612 25.7318L21.8405 23.5913L20.2328 21.6031L22.6967 22.2595L24.0856 20.1191L24.2188 22.6686L26.6921 23.325L24.3044 24.2382L24.4471 26.7877Z" fill="#FFDA44"/>
<path d="M27.6444 20.9848L28.4054 18.5495L26.3221 17.075L28.8716 17.0369L29.6231 14.6016L30.4507 17.0179L33.0002 16.9894L30.9549 18.5114L31.773 20.9277L29.6897 19.4532L27.6444 20.9848Z" fill="#FFDA44"/>
<path d="M31.9542 6.9439L30.8316 9.23652L32.6581 11.0154L30.1372 10.654L29.0147 12.9371L28.5771 10.4256L26.0466 10.0642L28.3107 8.87503L27.8731 6.3541L29.6996 8.13302L31.9542 6.9439Z" fill="#FFDA44"/>
<path d="M24.5145 0L24.3242 2.53996L26.6929 3.50077L24.21 4.1096L24.0293 6.65907L22.688 4.49011L20.2051 5.09894L21.8508 3.14879L20.5 0.989346L22.8687 1.95016L24.5145 0Z" fill="#FFDA44"/>
</svg>
