<svg width="26" height="28" viewBox="0 0 26 28" fill="none" xmlns="http://www.w3.org/2000/svg">
<path d="M12.8432 10.3006C12.8432 12.1791 12.8432 14.0342 12.8432 15.8893C12.8432 15.9165 12.8277 15.9437 12.8239 15.967C12.7968 15.9709 12.7813 15.9787 12.7697 15.9709C12.5377 15.8659 8.85602 13.8825 8.70907 13.7814C8.7052 13.7541 8.6936 13.7153 8.6936 13.6803C8.67813 13.198 8.66266 12.7158 8.64332 12.2335C8.62012 11.5374 8.58918 10.8373 8.56598 10.1412C8.54664 9.62781 8.53117 9.11445 8.5157 8.60109C8.51184 8.53498 8.51957 8.46886 8.52344 8.3833C8.57758 8.39886 8.61625 8.40664 8.64719 8.4183C10.0394 9.04445 11.4316 9.6667 12.8432 10.3006Z" fill="#F46B36"/>
<path d="M13.7443 10.3207C15.0398 9.7334 16.3315 9.15003 17.6116 8.57056C17.6734 8.59389 17.6696 8.63667 17.6696 8.67167C17.658 9.94341 17.6464 11.2151 17.6348 12.4869C17.6309 12.8641 17.6193 13.2375 17.6116 13.6147C17.6116 13.6536 17.6038 13.6925 17.5961 13.7431C17.5536 13.7742 17.5033 13.8092 17.453 13.8403C16.2812 14.482 15.1133 15.1237 13.9415 15.7654C13.8835 15.7965 13.8216 15.8198 13.7482 15.8509C13.7366 15.8043 13.725 15.7771 13.725 15.7498C13.6979 15.4154 13.7172 10.5034 13.7443 10.3207Z" fill="#F46B36"/>
<path d="M8.74414 14.8047C8.79442 14.8241 8.83309 14.8319 8.86403 14.8475C9.49439 15.1586 12.6965 16.8931 12.828 16.9904C12.8512 17.1654 12.8667 21.6378 12.8435 22.0734C12.8435 22.1006 12.8319 22.1279 12.8241 22.1629C12.7313 22.1629 12.6772 22.1045 12.6114 22.0656C11.8264 21.5795 11.0413 21.0972 10.2524 20.6111C9.87726 20.3778 9.49826 20.1444 9.12313 19.9111C9.07286 19.88 9.01872 19.845 8.96844 19.8138C8.91043 19.7788 8.8795 19.7322 8.8795 19.6622C8.8795 19.5922 8.87563 19.5261 8.87563 19.456C8.84856 18.6666 8.81762 17.8771 8.79441 17.0876C8.78281 16.7881 8.78281 16.4887 8.77508 16.1892C8.76348 15.7925 8.74801 15.3919 8.73641 14.9953C8.73254 14.9408 8.74027 14.8825 8.74414 14.8047Z" fill="#F46B36"/>
<path d="M17.5381 19.6698C16.2851 20.4826 15.0283 21.2954 13.7869 22.0966C13.7172 22.0733 13.7211 22.0344 13.7172 21.9955C13.7134 21.9332 13.7134 21.871 13.7134 21.8127C13.7134 20.257 13.7134 18.7014 13.7134 17.1458C13.7134 17.0602 13.7134 16.9785 13.7134 16.9124C13.7714 16.8152 13.8565 16.7919 13.9261 16.7491C14.6725 16.3368 15.4227 15.9246 16.173 15.5162C16.5752 15.2946 16.9735 15.0768 17.3757 14.8551C17.4337 14.824 17.4956 14.7968 17.5459 14.7695C17.5652 14.7812 17.5729 14.7851 17.5768 14.789C17.5807 14.7929 17.5845 14.8045 17.5845 14.8084C17.5845 15.4462 17.5845 16.0802 17.5768 16.718C17.5729 17.698 17.5536 18.6781 17.5381 19.6698Z" fill="#F46B36"/>
<path d="M3.98716 6.3765C4.02196 6.3765 4.04517 6.36873 4.0645 6.3765C5.22856 6.89375 6.38874 7.411 7.55666 7.92825C7.57213 7.99048 7.5876 8.04104 7.59533 8.0916C7.60694 8.16938 7.6108 8.24327 7.61467 8.32105C7.63401 8.89664 7.64948 9.46834 7.67268 10.0439C7.69588 10.6117 7.72295 11.1756 7.75003 11.7435C7.75776 11.9262 7.75776 12.1129 7.7655 12.2957C7.77323 12.5096 7.78483 12.7235 7.79256 12.9374C7.79643 13.0424 7.79256 13.1513 7.79256 13.2563C7.73069 13.2991 7.68815 13.2524 7.64561 13.2291C7.12739 12.953 6.60918 12.6768 6.09096 12.3968C5.55341 12.109 5.01586 11.8174 4.4783 11.5296C4.41256 11.4946 4.34682 11.4557 4.2772 11.4207C4.2308 11.3001 4.22693 11.1795 4.22306 11.0551C4.19986 10.6273 4.18439 10.1956 4.16119 9.7678C4.12251 9.09498 4.07997 8.42217 4.0413 7.74936C4.0181 7.35267 4.00263 6.95209 3.98329 6.5554C3.97556 6.49707 3.98329 6.43873 3.98716 6.3765Z" fill="#F46B36"/>
<path d="M13.744 27.9999C13.713 27.7937 13.7053 23.473 13.7324 23.1929C13.802 23.1463 13.8832 23.0879 13.9683 23.0374C14.8732 22.4696 15.7782 21.9057 16.687 21.3378C16.919 21.1939 17.151 21.0462 17.387 20.8984C17.4256 20.875 17.4643 20.8595 17.5184 20.8284C17.53 20.8711 17.5416 20.8984 17.5416 20.9256C17.53 22.3062 17.5184 23.683 17.4991 25.0636C17.4914 25.4836 17.5068 25.3903 17.2129 25.6042C16.7682 25.927 16.3196 26.242 15.871 26.5609C15.2483 27.0043 14.6257 27.4476 14.0031 27.8871C13.9605 27.9182 13.918 27.9493 13.8677 27.9726C13.8329 27.996 13.7942 27.9921 13.744 27.9999Z" fill="#F46B36"/>
<path d="M12.8238 23.1698C12.8547 23.3915 12.8547 27.6384 12.8238 27.8251C12.7542 27.8484 12.7078 27.794 12.6614 27.7629C12.3095 27.5295 11.9614 27.2962 11.6133 27.0628C10.8399 26.5456 10.0664 26.0283 9.29298 25.5072C9.04547 25.34 9.07254 25.3788 9.06481 25.0833C9.0416 24.3482 9.02227 23.6132 8.99906 22.8782C8.97973 22.2792 8.95266 21.6842 8.92945 21.0853C8.92559 21.0075 8.92945 20.9336 8.92945 20.8636C8.99906 20.8169 9.03774 20.8636 9.08028 20.8908C9.47087 21.1281 9.86534 21.3653 10.2559 21.6025C11.0371 22.077 11.8222 22.5515 12.6034 23.0298C12.6807 23.0765 12.7542 23.1271 12.8238 23.1698Z" fill="#F46B36"/>
<path d="M4.31585 12.4358C4.36999 12.4552 4.41253 12.4669 4.45121 12.4863C5.2556 12.883 7.67265 14.1976 7.83121 14.3259C7.83508 14.3492 7.84282 14.3803 7.84282 14.4115C7.86215 14.8937 7.87762 15.3759 7.89696 15.8582C7.92016 16.4727 7.9511 17.0833 7.9743 17.6977C7.98204 17.8727 7.98204 18.0516 7.98977 18.2267C8.00138 18.5028 8.01684 18.7789 8.02458 19.055C8.02458 19.0978 8.01684 19.1406 8.01298 19.1912C7.91629 19.1873 7.85829 19.1328 7.79641 19.0939C6.83346 18.5028 5.87437 17.9078 4.91141 17.3127C4.84567 17.2738 4.78379 17.2272 4.71418 17.1922C4.58269 17.1299 4.52855 17.0327 4.52855 16.881C4.52855 16.6438 4.50535 16.4066 4.49375 16.1693C4.47441 15.7804 4.45507 15.3876 4.43574 14.9987C4.41253 14.5709 4.38546 14.1431 4.36226 13.7153C4.34292 13.342 4.32359 12.9647 4.30425 12.5914C4.30038 12.5408 4.30812 12.498 4.31585 12.4358Z" fill="#F46B36"/>
<path d="M18.7369 13.1125C18.7021 12.8791 18.7447 8.43389 18.7872 8.05665C18.8298 8.02942 18.88 7.99442 18.9342 7.97109C19.9397 7.51606 20.949 7.06104 21.9545 6.60601C22.0009 6.58657 22.0512 6.57879 22.1015 6.56323C22.117 6.70324 21.9971 11.0357 21.97 11.3468C21.9236 11.3779 21.8694 11.4168 21.8114 11.4518C20.8369 11.9885 19.8585 12.5213 18.8839 13.0541C18.8375 13.0775 18.7872 13.093 18.7369 13.1125Z" fill="#F46B36"/>
<path d="M13.2571 9.60093C11.8533 8.98645 10.4495 8.37587 9.04566 7.76139C9.03406 7.7575 9.0302 7.73805 9.02246 7.72639C9.0302 7.71472 9.03793 7.69916 9.04953 7.69527C10.4418 7.15469 11.834 6.61799 13.2185 6.0813C13.7599 6.2602 17.252 7.64472 17.4106 7.74583C17.2172 7.87806 14.1157 9.26647 13.2571 9.60093Z" fill="#F46B36"/>
<path d="M18.7213 14.1239C19.7345 13.56 20.7594 13.0039 21.7842 12.44C21.8229 12.4205 21.8654 12.405 21.8964 12.3894C21.9505 12.4205 21.9428 12.4633 21.9428 12.4983C21.9428 12.6889 21.9389 12.8833 21.935 13.0739C21.9234 13.5484 21.908 14.0228 21.8925 14.5012C21.8654 15.2673 21.8383 16.0335 21.8113 16.7996C21.8113 16.8308 21.8035 16.8619 21.7997 16.9085C21.2892 17.2508 20.7594 17.5852 20.2373 17.9275C19.7191 18.2619 19.2047 18.6003 18.6594 18.9464C18.6478 18.8725 18.6362 18.8298 18.6362 18.7909C18.6401 18.5303 18.6517 18.2697 18.6517 18.0092C18.6633 17.0447 18.671 16.0763 18.6788 15.1118C18.6826 14.8279 18.6942 14.544 18.702 14.2601C18.702 14.2173 18.7136 14.1784 18.7213 14.1239Z" fill="#F46B36"/>
<path d="M8.20249 24.7449C8.15995 24.7332 8.13288 24.7371 8.11741 24.7254C7.03457 24.002 5.94787 23.2748 4.85729 22.5436C4.84182 22.3492 4.82249 22.1586 4.81088 21.968C4.77994 21.4469 4.75287 20.9297 4.7258 20.4085C4.70647 20.0196 4.68713 19.6268 4.66779 19.2379C4.65619 18.9773 4.63686 18.7168 4.62525 18.4562C4.62139 18.3823 4.62525 18.3084 4.62525 18.2306C4.71807 18.2151 4.76834 18.2734 4.82248 18.3045C5.7545 18.8684 6.69038 19.4362 7.6224 20.0002C7.73842 20.0702 7.85444 20.1441 7.97432 20.2141C8.0478 20.2568 8.07487 20.3152 8.07874 20.4007C8.09034 20.8052 8.10968 21.2136 8.12515 21.618C8.15222 22.2597 8.18316 22.9053 8.20249 23.547C8.21023 23.9437 8.20249 24.3326 8.20249 24.7449Z" fill="#F46B36"/>
<path d="M0.355791 9.30512C0.235905 7.75726 0.116019 6.2094 0 4.65765C0 4.6382 0.0116033 4.61487 0.0232051 4.58765C0.0541434 4.59542 0.0889485 4.59542 0.112152 4.60709C1.09831 5.04656 2.08834 5.48992 3.07063 5.92938C3.1093 6.08495 3.11703 6.22885 3.12864 6.37274C3.15571 6.87055 3.18664 7.36835 3.21372 7.86227C3.23305 8.18506 3.24852 8.50397 3.26786 8.82676C3.28719 9.23901 3.30653 9.65514 3.32973 10.0674C3.34134 10.2968 3.35681 10.5263 3.36841 10.7558C3.37227 10.7985 3.36454 10.8452 3.36067 10.8919C3.32973 10.8919 3.30266 10.8958 3.28333 10.888C3.15957 10.8413 0.491146 9.39846 0.355791 9.30512Z" fill="#F46B36"/>
<path d="M18.5902 24.6128C18.5825 24.5583 18.5747 24.5272 18.5709 24.5C18.5592 23.9516 18.6173 20.3192 18.6443 20.1131C19.6498 19.4869 20.6592 18.8452 21.6801 18.2191C21.6956 18.2074 21.7227 18.2113 21.7536 18.2113C21.7575 18.2541 21.7652 18.2891 21.7652 18.328C21.7614 18.5808 21.7807 18.8375 21.7498 19.0864C21.6956 19.5064 21.7304 19.9264 21.715 20.3503C21.6917 20.9492 21.6801 21.5443 21.6647 22.1432C21.6647 22.1743 21.6647 22.2054 21.6608 22.2365C21.6453 22.396 21.5796 22.5165 21.4404 22.6138C20.9686 22.9366 20.5045 23.2749 20.0365 23.6055C19.8277 23.6911 19.6808 23.8661 19.4951 23.9827C19.3134 24.0955 19.1355 24.2161 18.9614 24.3366C18.8377 24.4105 18.7294 24.5039 18.5902 24.6128Z" fill="#F46B36"/>
<path d="M22.906 10.8374C22.8905 10.7907 22.8789 10.7713 22.8789 10.7519C22.9098 9.22732 22.9408 7.7028 22.9717 6.17049C23.0143 6.13938 23.0568 6.10438 23.1032 6.08493C24.0198 5.6688 24.9363 5.25267 25.8528 4.84042C25.8877 4.82487 25.9225 4.81709 25.9495 4.80542C26.0075 4.82875 25.9998 4.87153 25.9998 4.90654C25.9727 5.47434 25.9457 6.03826 25.9147 6.60607C25.8683 7.48501 25.8258 8.36394 25.7794 9.25455C25.7407 9.28177 25.702 9.31677 25.6556 9.344C24.7816 9.82624 23.9037 10.3046 23.0259 10.783C22.9988 10.8024 22.9601 10.8141 22.906 10.8374Z" fill="#F46B36"/>
<path d="M0.781199 14.7534C0.746394 14.3101 0.715455 13.89 0.684517 13.47C0.645844 12.9878 0.607171 12.5094 0.568498 12.0272C0.553029 11.821 0.53756 11.6149 0.522091 11.4088C0.502754 11.1327 0.479551 10.8604 0.460215 10.5843C0.456348 10.526 0.460215 10.4637 0.460215 10.4015C0.556897 10.3704 0.614905 10.4326 0.676782 10.4676C1.33809 10.8177 1.99553 11.1716 2.65683 11.5216C2.86567 11.6344 3.07063 11.751 3.28333 11.856C3.39935 11.9144 3.44963 11.9883 3.45736 12.1205C3.48443 12.7778 3.5231 13.4389 3.55791 14.0962C3.59658 14.7534 3.63912 15.4107 3.6778 16.0679C3.68553 16.1963 3.68553 16.3285 3.68553 16.4568C3.68553 16.4685 3.67393 16.4802 3.66233 16.4957C3.64299 16.4918 3.61592 16.4957 3.60045 16.4841C2.6607 15.9163 1.72482 15.3368 0.781199 14.7534Z" fill="#F46B36"/>
<path d="M4.34668 5.71156C4.44336 5.61822 4.54391 5.60656 4.63286 5.57544C5.81238 5.15931 6.9919 4.74318 8.17143 4.33093C8.56976 4.19093 8.46147 4.1987 8.82113 4.33871C9.84983 4.74318 10.8785 5.15153 11.9034 5.55989C11.973 5.58711 12.0387 5.61822 12.1122 5.64934C12.089 5.72323 12.031 5.72712 11.9846 5.74268C11.0564 6.08881 10.1283 6.43882 9.20012 6.78495C8.82886 6.92496 8.4576 7.06108 8.08635 7.20498C7.96646 7.25165 7.86204 7.25553 7.73829 7.20498C6.64772 6.72662 5.55714 6.25604 4.46656 5.78546C4.43176 5.75823 4.40082 5.73879 4.34668 5.71156Z" fill="#F46B36"/>
<path d="M25.5239 14.5044C24.6073 15.0956 23.714 15.6673 22.8245 16.239C22.8129 16.2467 22.7974 16.239 22.7665 16.239C22.7626 16.1806 22.7549 16.1223 22.7549 16.064C22.7742 15.22 22.7974 14.38 22.8206 13.536C22.8322 13.0693 22.8361 12.6027 22.8438 12.136C22.8438 12.0893 22.8477 12.0426 22.8438 11.9998C22.8361 11.8948 22.8825 11.8287 22.9753 11.7821C23.2963 11.6109 23.6173 11.432 23.9383 11.257C24.472 10.9653 25.0056 10.6698 25.5432 10.3781C25.5935 10.3509 25.6515 10.3275 25.6979 10.3042C25.7134 10.3159 25.7211 10.3198 25.725 10.3275C25.7288 10.3314 25.7327 10.3392 25.7327 10.347C25.7327 10.4092 25.7327 10.4675 25.7288 10.5298C25.6515 11.8521 25.6012 13.1744 25.5239 14.5044Z" fill="#F46B36"/>
<path d="M3.99102 21.9643C3.03193 21.3226 2.11538 20.7081 1.1911 20.0897C1.13696 19.3975 1.08669 18.7091 1.03254 18.0246C0.978402 17.3401 0.931994 16.6518 0.870117 15.9673C0.970667 15.944 1.02094 16.0023 1.07509 16.0334C1.71705 16.4184 2.35516 16.8073 2.99326 17.1962C3.20983 17.3285 3.42253 17.4568 3.63909 17.5852C3.72804 17.6357 3.76671 17.7018 3.77058 17.8068C3.78218 18.1685 3.80152 18.5263 3.82086 18.888C3.84406 19.2847 3.87113 19.6814 3.89433 20.082C3.91367 20.432 3.93301 20.7859 3.95234 21.1398C3.96395 21.3537 3.97942 21.5676 3.99102 21.7815C3.99488 21.8243 3.99102 21.8709 3.99102 21.9643Z" fill="#F46B36"/>
<path d="M21.9353 5.75073C21.8425 5.79739 21.7883 5.82851 21.7342 5.85184C20.7635 6.27964 19.7928 6.70355 18.826 7.13524C18.6984 7.19358 18.5901 7.19747 18.4586 7.14691C17.2133 6.64522 15.9681 6.1513 14.7228 5.64961C14.6803 5.63405 14.6416 5.61461 14.5913 5.59127C14.63 5.5096 14.7073 5.5096 14.7615 5.48627C15.6471 5.14014 16.5366 4.7979 17.426 4.45566C17.5266 4.41676 17.6271 4.38176 17.7238 4.33898C17.8398 4.28454 17.952 4.28454 18.0757 4.3312C18.5166 4.49844 18.9613 4.66178 19.4061 4.82123C20.1718 5.10125 20.9375 5.38126 21.7032 5.66128C21.7613 5.68461 21.827 5.70795 21.9353 5.75073Z" fill="#F46B36"/>
<path d="M22.6663 21.7116C22.6354 21.4511 22.7127 17.8536 22.7514 17.5581C22.7901 17.5308 22.8365 17.4919 22.8868 17.4569C23.6641 16.9708 24.4414 16.4847 25.2187 15.9985C25.2651 15.9713 25.3115 15.9441 25.3618 15.9246C25.4082 15.9052 25.4546 15.9402 25.4585 15.9908C25.4624 16.0452 25.4585 16.0997 25.4585 16.1502C25.4353 16.6091 25.4082 17.068 25.385 17.527C25.3579 18.0636 25.3309 18.6003 25.3038 19.1331C25.2961 19.3004 25.2883 19.4715 25.2845 19.6387C25.2845 19.7865 25.2265 19.8993 25.1027 19.9888C24.3215 20.541 23.5442 21.0933 22.7669 21.6455C22.7398 21.6727 22.7127 21.6844 22.6663 21.7116Z" fill="#F46B36"/>
<path d="M0.0390625 3.84857C0.147346 3.81357 0.205356 3.79024 0.259498 3.77468C1.56664 3.39355 2.87765 3.01242 4.18479 2.63129C4.31628 2.59239 4.4323 2.60017 4.55605 2.65073C5.43393 3.00075 6.3118 3.34688 7.18967 3.6969C7.25542 3.72412 7.33663 3.7319 7.39464 3.81357C7.3289 3.84079 7.27089 3.86802 7.20901 3.89135C6.23445 4.24526 5.2599 4.59528 4.28534 4.94919C4.0417 5.03864 3.79806 5.12031 3.55443 5.21754C3.41134 5.27587 3.28372 5.27198 3.14063 5.20587C2.50639 4.92196 1.86829 4.64973 1.23405 4.3736C0.897601 4.2297 0.561148 4.08192 0.224694 3.93802C0.182154 3.91858 0.135745 3.89524 0.0390625 3.84857Z" fill="#F46B36"/>
<path d="M16.819 3.88751C16.7804 3.91862 16.7649 3.93807 16.7455 3.94585C15.655 4.3542 14.5644 4.76645 13.47 5.1748C12.2711 4.69644 11.08 4.20642 9.85791 3.7125C9.91979 3.6775 9.94686 3.65416 9.9778 3.64639C11.0065 3.28859 12.0391 2.93468 13.0639 2.57299C13.1567 2.54188 13.2379 2.54577 13.3269 2.57688C14.4484 2.99302 15.5699 3.40915 16.6914 3.82528C16.7223 3.83695 16.7571 3.8564 16.819 3.88751Z" fill="#F46B36"/>
<path d="M19.2241 3.77489C19.2976 3.73989 19.344 3.71655 19.3904 3.69711C20.1871 3.38987 20.9837 3.08263 21.7765 2.7715C21.8925 2.72483 21.9931 2.7365 22.1052 2.7715C23.2384 3.14486 24.3753 3.5221 25.5123 3.89545C25.6206 3.93045 25.7289 3.96546 25.8604 4.01213C25.8178 4.04324 25.7946 4.06657 25.7714 4.07824C24.9438 4.44382 24.1124 4.80939 23.2848 5.17886C23.1726 5.22941 23.0798 5.1983 22.9793 5.1633C22.3296 4.92606 21.676 4.68883 21.0263 4.45159C20.481 4.25325 19.9396 4.05491 19.3943 3.85656C19.344 3.83323 19.3015 3.80989 19.2241 3.77489Z" fill="#F46B36"/>
<path d="M14.5332 2.07517C14.6454 1.98572 14.7575 1.94294 14.8697 1.90016C15.2216 1.77571 15.5735 1.65126 15.9254 1.52681C16.2348 1.41792 16.5442 1.31291 16.8536 1.20013C17.0044 1.14568 17.1436 1.14179 17.2983 1.19235C18.4198 1.5657 19.5413 1.93128 20.6628 2.30074C20.7131 2.3163 20.7595 2.33963 20.8214 2.36686C20.775 2.43297 20.717 2.44464 20.6628 2.46408C20.0905 2.67798 19.522 2.89577 18.9496 3.10967C18.764 3.17968 18.5745 3.2419 18.3966 3.32357C18.2381 3.39358 18.095 3.38969 17.9364 3.32746C17.3718 3.11356 16.8072 2.91133 16.2387 2.70521C15.7243 2.51853 15.2061 2.33185 14.6918 2.14129C14.6454 2.12573 14.5989 2.1024 14.5332 2.07517Z" fill="#F46B36"/>
<path d="M12.0426 2.14908C11.9768 2.1802 11.9382 2.19964 11.8995 2.2152C11.01 2.53022 10.1205 2.84523 9.23106 3.16025C9.15758 3.18747 9.08797 3.21081 9.01836 3.24192C8.89848 3.30026 8.78633 3.2847 8.66644 3.23803C8.00127 2.96968 7.33609 2.70522 6.67479 2.44077C6.45049 2.35132 6.22232 2.25798 6.00575 2.17242C5.99028 2.11408 6.03282 2.11408 6.05602 2.10241C6.08309 2.09075 6.11403 2.08297 6.1411 2.07519C6.68252 1.91963 7.22394 1.76406 7.76536 1.6085C8.24104 1.47238 8.71671 1.33626 9.18852 1.19237C9.29681 1.16125 9.39349 1.16125 9.49791 1.20014C10.3062 1.4996 11.1144 1.79129 11.9227 2.08686C11.9536 2.09464 11.9846 2.11797 12.0426 2.14908Z" fill="#F46B36"/>
<path d="M10.8827 0.698598C11.0722 0.644151 11.2617 0.589704 11.4512 0.535256C12.0352 0.368025 12.623 0.200794 13.207 0.0257845C13.323 -0.00921738 13.4274 -0.00921744 13.5396 0.0296735C14.2705 0.266908 15.0053 0.500254 15.7362 0.737489C15.7632 0.745267 15.7865 0.764713 15.8406 0.791936C15.6588 0.865829 15.5041 0.928055 15.3494 0.986391C14.7539 1.20418 14.1583 1.41808 13.5666 1.63587C13.4506 1.67865 13.3501 1.68254 13.2379 1.63587C12.4954 1.35586 11.7529 1.08362 11.0104 0.807493C10.9639 0.788047 10.9175 0.764713 10.875 0.741378C10.8789 0.725822 10.8789 0.714154 10.8827 0.698598Z" fill="#F46B36"/>
</svg>
