<svg width="29" height="28" viewBox="0 0 29 28" fill="none" xmlns="http://www.w3.org/2000/svg">
<path fill-rule="evenodd" clip-rule="evenodd" d="M13.778 9.28084C13.9912 9.13918 14.2425 9.06348 14.4998 9.06348C14.757 9.06348 15.0084 9.13918 15.2216 9.28084L18.7273 11.6001L20.4222 12.7154L20.667 12.8739L23.8441 14.9714L27.7816 17.6139L28.9996 18.444V18.6449L26.2414 20.5079L25.9192 20.7234L23.8441 22.1365L18.7273 25.4507L15.2216 27.7827C15.0084 27.9243 14.757 28 14.4998 28C14.2425 28 13.9912 27.9243 13.778 27.7827L10.2723 25.4507L5.15548 22.1365L3.0804 20.7234L2.75818 20.5079L0 18.6449V18.444L1.21798 17.6139L5.15548 14.9714L8.33255 12.8739L8.57743 12.7154L10.2723 11.6001L13.778 9.28084ZM14.4998 22.6424L14.532 22.6625L20.899 18.6594L14.9573 14.7306L14.4998 14.4264L14.0422 14.7306L8.10055 18.6594L14.4676 22.6625L14.4998 22.6424Z" fill="#9FD02D"/>
<rect x="7.73291" y="4.85693" width="13.5798" height="9.3504" fill="white"/>
<path fill-rule="evenodd" clip-rule="evenodd" d="M13.7785 0.217365C13.9916 0.0757023 14.243 0 14.5003 0C14.7575 0 15.0089 0.0757023 15.222 0.217365L18.7278 2.53667L20.4226 3.65196L20.6675 3.81038L23.8446 5.90789L27.7821 8.55037L29.0001 9.38051V9.58138L26.2419 11.4444L25.9197 11.6599L23.8446 13.073L18.7278 16.3872L15.222 18.7192C15.0089 18.8608 14.7575 18.9365 14.5003 18.9365C14.243 18.9365 13.9916 18.8608 13.7785 18.7192L10.2728 16.3872L5.15597 13.073L3.08089 11.6599L2.75867 11.4444L0.000488281 9.58138V9.38051L1.21847 8.55037L5.15597 5.90789L8.33304 3.81038L8.57792 3.65196L10.2728 2.53667L13.7785 0.217365ZM14.5003 13.5789L14.5325 13.599L20.8995 9.59596L14.9578 5.66709L14.5003 5.36292L14.0427 5.66709L8.10104 9.59596L14.4681 13.599L14.5003 13.5789Z" fill="#237EFF"/>
</svg>
