<svg width="40" height="20" viewBox="0 0 40 20" fill="none" xmlns="http://www.w3.org/2000/svg">
<g clip-path="url(#clip0_43_1728)">
<path d="M0 0H40V20H0V0Z" fill="#DA2032"/>
<path d="M13.3335 0H26.6668V20H13.3335V0Z" fill="#0066B3"/>
<path d="M6.66683 8.66667C7.67935 8.66667 8.50016 7.84585 8.50016 6.83333C8.50016 5.82081 7.67935 5 6.66683 5C5.65431 5 4.8335 5.82081 4.8335 6.83333C4.8335 7.84585 5.65431 8.66667 6.66683 8.66667Z" fill="#FFD900"/>
<path d="M6.6665 8C7.77107 8 8.6665 7.10457 8.6665 6C8.6665 4.89543 7.77107 4 6.6665 4C5.56193 4 4.6665 4.89543 4.6665 6C4.6665 7.10457 5.56193 8 6.6665 8Z" fill="#DA2032"/>
<path d="M6.66684 7.66667C7.40322 7.66667 8.00017 7.06971 8.00017 6.33333C8.00017 5.59695 7.40322 5 6.66684 5C5.93045 5 5.3335 5.59695 5.3335 6.33333C5.3335 7.06971 5.93045 7.66667 6.66684 7.66667Z" fill="#FFD900"/>
<path d="M6.80678 1.99993C6.64112 2.0751 6.57922 2.21063 6.56588 2.34563C6.55755 2.4593 6.60772 2.58733 6.61272 2.6985C6.61272 2.8898 6.41478 2.9528 6.41478 3.22583C6.41478 3.31966 6.50145 3.42306 6.50145 3.6666C6.48645 3.79443 6.41512 3.82326 6.33478 3.83326C6.29058 3.83326 6.24819 3.8157 6.21693 3.78445C6.18568 3.75319 6.16812 3.7108 6.16812 3.6666C6.16824 3.62387 6.18476 3.58282 6.21428 3.55193C6.21955 3.54598 6.22523 3.54041 6.23128 3.53526C6.26928 3.49693 6.32145 3.4821 6.32112 3.38093C6.32112 3.32893 6.28745 3.2816 6.25528 3.18953C6.22495 3.1002 6.24695 2.95086 6.31912 2.8627C6.20245 2.9077 6.13055 3.01953 6.09388 3.11986C6.05522 3.2432 6.08888 3.31423 6.03588 3.41673C6.00355 3.48306 5.96505 3.51056 5.92855 3.5659C5.88538 3.62623 5.83472 3.76733 5.83472 3.83283C5.83472 4.05384 5.92251 4.26581 6.07879 4.42209C6.23507 4.57837 6.44704 4.66616 6.66805 4.66616C6.88906 4.66616 7.10102 4.57837 7.25731 4.42209C7.41359 4.26581 7.50138 4.05384 7.50138 3.83283C7.50138 3.76733 7.45138 3.62623 7.40822 3.5659C7.37172 3.51056 7.33255 3.48306 7.30022 3.41673C7.24788 3.31423 7.28155 3.2432 7.24288 3.11986C7.20622 3.01953 7.13422 2.90773 7.01762 2.8627C7.08978 2.95086 7.11178 3.1002 7.08145 3.18953C7.04912 3.28153 7.01512 3.32886 7.01512 3.38093C7.01512 3.4821 7.06695 3.49693 7.10495 3.53526C7.11101 3.54041 7.11669 3.54598 7.12195 3.55193C7.15147 3.58282 7.16799 3.62387 7.16812 3.6666C7.16812 3.7108 7.15056 3.75319 7.1193 3.78445C7.08805 3.8157 7.04565 3.83326 7.00145 3.83326C6.90928 3.8216 6.84312 3.7786 6.83478 3.6666C6.83478 3.34573 6.97212 3.32526 6.97212 3.08783C6.97212 2.7488 6.66808 2.5883 6.66808 2.34043C6.66808 2.25643 6.68775 2.11326 6.80675 1.99951L6.80678 1.99993ZM3 8.99993H4.66667V16.9999H3V8.99993ZM8.66667 8.99993H10.3333V16.9999H8.66667V8.99993ZM5 8.99993H8.33333L6.66667 9.99994L5 8.99993ZM5 10.3333H8.33333V10.9999H5V10.3333ZM5 14.9999H8.33333V15.6666H5V14.9999ZM5 15.9999H8.33333L6.66667 16.9999L5 15.9999Z" fill="#FFD900"/>
<path d="M6.66667 14.6666C7.58714 14.6666 8.33333 13.9204 8.33333 12.9999C8.33333 12.0794 7.58714 11.3333 6.66667 11.3333C5.74619 11.3333 5 12.0794 5 12.9999C5 13.9204 5.74619 14.6666 6.66667 14.6666Z" fill="#FFD900"/>
<path d="M6.66634 12.4499C6.85044 12.4499 6.99967 12.3006 6.99967 12.1165C6.99967 11.9324 6.85044 11.7832 6.66634 11.7832C6.48225 11.7832 6.33301 11.9324 6.33301 12.1165C6.33301 12.3006 6.48225 12.4499 6.66634 12.4499Z" fill="#DA2032"/>
<path d="M6.66634 14.2167C6.85044 14.2167 6.99967 14.0675 6.99967 13.8834C6.99967 13.6993 6.85044 13.55 6.66634 13.55C6.48225 13.55 6.33301 13.6993 6.33301 13.8834C6.33301 14.0675 6.48225 14.2167 6.66634 14.2167Z" fill="#DA2032"/>
<path d="M6.66644 11.1333C6.92724 11.1333 7.17735 11.2369 7.36176 11.4213C7.54617 11.6057 7.64977 11.8558 7.64977 12.1166C7.64977 12.3774 7.54617 12.6275 7.36176 12.812C7.17735 12.9964 6.92724 13.1 6.66644 13.1C6.45869 13.1 6.25944 13.1825 6.11254 13.3294C5.96564 13.4763 5.88311 13.6755 5.88311 13.8833C5.88311 14.0911 5.96564 14.2903 6.11254 14.4372C6.25944 14.5841 6.45869 14.6666 6.66644 14.6666V14.8666C6.40564 14.8666 6.15553 14.763 5.97112 14.5786C5.78671 14.3942 5.68311 14.1441 5.68311 13.8833C5.68311 13.6225 5.78671 13.3724 5.97112 13.188C6.15553 13.0036 6.40564 12.9 6.66644 12.9C6.87419 12.9 7.07344 12.8174 7.22034 12.6705C7.36724 12.5236 7.44977 12.3244 7.44977 12.1166C7.44977 11.9089 7.36724 11.7096 7.22034 11.5627C7.07344 11.4158 6.87419 11.3333 6.66644 11.3333V11.1333Z" fill="#DA2032"/>
</g>
<defs>
<clipPath id="clip0_43_1728">
<rect width="40" height="20" fill="white"/>
</clipPath>
</defs>
</svg>
