<svg width="22" height="17" viewBox="0 0 22 17" fill="none" xmlns="http://www.w3.org/2000/svg">
<path d="M16.6282 4.03167L18.6333 6.79475L21.8806 5.74183L19.8723 8.50253L21.8771 11.2655L18.631 10.2086L16.6229 12.9693L16.6249 9.55554L13.3788 8.49861L16.6261 7.44569L16.6282 4.03167Z" fill="#F0F0F0"/>
<path d="M11.1563 15.4064C7.34208 15.4064 4.24995 12.3143 4.24995 8.5001C4.24995 4.68592 7.34208 1.59379 11.1563 1.59379C12.3455 1.59379 13.4645 1.89459 14.4414 2.42391C12.9088 0.925004 10.8128 0 8.5 0C3.80549 0 0 3.80559 0 8.5C0 13.1944 3.80559 17 8.5 17C10.813 17 12.9089 16.0749 14.4414 14.5761C13.4645 15.1056 12.3455 15.4064 11.1563 15.4064Z" fill="#F0F0F0"/>
</svg>
