<svg width="38" height="28" viewBox="0 0 38 28" fill="none" xmlns="http://www.w3.org/2000/svg">
<path d="M37.2498 0L37.2424 28L0.00737081 27.9963L0 0.0147405L37.2498 0ZM36.0079 26.7802L36.0153 1.24559H1.23822L1.24559 26.7655L36.0079 26.7802Z" fill="#1313BB"/>
<path d="M32.9161 4.43701H35.1382V15.6436L33.7047 15.6473L33.6899 5.82264L30.775 13.4841L29.2456 13.4915L26.3601 5.85212L26.3306 15.651L24.875 15.6473L24.8824 4.45175L27.1524 4.44438L30.0121 12.0469L32.9161 4.43701Z" fill="#1313BB"/>
<path d="M2.32497 15.6583L2.32129 4.4553C2.32129 4.4553 4.61715 4.42951 5.68954 4.44425C6.41552 4.45162 7.13413 4.51795 7.84537 4.6801C8.28759 4.7796 8.71876 4.91595 9.13519 5.10758C10.2076 5.60139 10.9409 6.40476 11.3426 7.514C11.5121 7.98202 11.6153 8.46478 11.6706 8.95859C11.7222 9.4045 11.7443 9.85041 11.7296 10.3C11.7074 10.9928 11.6301 11.6746 11.4237 12.3379C11.3205 12.6696 11.1878 12.9902 11.0146 13.2961C10.6277 13.9815 10.0786 14.5011 9.38578 14.8696C8.89565 15.1313 8.37235 15.3082 7.82695 15.4298C7.26311 15.5551 6.69191 15.6288 6.11334 15.6472C5.74851 15.6582 5.38367 15.6693 5.01884 15.6693C4.18967 15.6656 2.32497 15.6583 2.32497 15.6583ZM3.81379 5.68247L3.82853 14.4127C3.82853 14.4127 5.04464 14.4311 5.51265 14.4348C5.9733 14.4348 6.43026 14.409 6.88723 14.3426C7.28891 14.28 7.68322 14.1842 8.05911 14.0257C8.68191 13.7678 9.18309 13.3661 9.53318 12.7838C9.69902 12.5111 9.82063 12.2163 9.91276 11.9104C10.0786 11.365 10.1339 10.8049 10.1523 10.2373C10.1634 9.84304 10.1412 9.44872 10.0933 9.05441C10.0417 8.64904 9.9533 8.25472 9.80589 7.87146C9.49265 7.05704 8.93987 6.46741 8.14019 6.10995C7.75693 5.94043 7.35156 5.83356 6.93882 5.76354C6.52608 5.69352 6.10597 5.67141 5.68954 5.66773C5.12571 5.66773 3.81379 5.68247 3.81379 5.68247Z" fill="#1313BB"/>
<path d="M19.539 10.4032C19.539 10.4032 20.0807 10.687 20.394 11.0629C20.6925 11.4388 20.9615 11.8147 21.1789 12.2348C21.4553 12.7617 21.7169 13.2961 21.986 13.8268C22.2587 14.3685 22.9294 15.6657 22.9294 15.6657H21.2784C21.2784 15.6657 20.3313 13.7199 19.8854 12.8428C19.7527 12.5812 19.609 12.3232 19.4579 12.0689C19.3621 11.9142 19.2516 11.7668 19.1373 11.6267C18.8388 11.2545 18.4445 11.0518 17.9802 10.9671C17.7628 10.9265 17.5453 10.9155 17.3279 10.9118C16.8378 10.9081 15.6954 10.9228 15.6954 10.9228V15.6472L14.166 15.6546V4.44798C14.166 4.44798 16.6056 4.43324 17.737 4.4443C18.2971 4.44798 18.8536 4.49589 19.3916 4.66909C19.6017 4.73543 19.8043 4.82756 19.996 4.93074C20.5635 5.23661 20.9725 5.68989 21.1863 6.29794C21.4553 7.04972 21.4885 7.82361 21.2932 8.59381C21.0831 9.42298 20.5266 9.9647 19.9997 10.219C19.8891 10.2706 19.539 10.4032 19.539 10.4032ZM15.6917 9.65883C15.6917 9.65883 17.2173 9.67357 17.8549 9.66988C18.0981 9.66988 18.3376 9.62566 18.5661 9.55564C19.2073 9.36033 19.6164 8.9439 19.7675 8.28794C19.867 7.8494 19.8633 7.41087 19.7491 6.97602C19.6127 6.46378 19.2958 6.10631 18.813 5.89257C18.732 5.85572 18.6472 5.82992 18.5661 5.80044C18.2824 5.70831 17.9875 5.67883 17.6927 5.67515C17.0663 5.66778 15.7064 5.69357 15.7064 5.69357L15.6917 9.65883Z" fill="#1313BB"/>
<path d="M25.1916 25.7079H23.7949V18.6692L25.1879 18.6619L27.3032 23.1688L27.3106 18.6766L28.6925 18.6692V25.7079H27.2922L27.2885 25.6158L25.1916 21.1457V25.7079Z" fill="#1313BB"/>
<path d="M2.19248 18.6986C2.19248 18.6986 3.94662 18.6875 4.78316 18.6912C5.00427 18.6912 5.31382 18.7501 5.51651 18.8312C6.24249 19.1223 6.63312 19.6641 6.72525 20.4343C6.76947 20.8138 6.74367 21.186 6.64417 21.5546C6.5631 21.8531 6.41938 22.1258 6.20195 22.3469C6.07666 22.4759 5.77447 22.6564 5.67866 22.7007C5.70814 22.7854 7.00532 25.7409 7.00532 25.7409H5.40227L4.31145 23.0544L3.63338 23.0471L3.61495 25.7409H2.17773L2.19248 18.6986ZM3.6297 21.9599C3.6297 21.9599 4.27829 21.9673 4.51782 21.9747C4.62838 21.9784 4.72788 21.9452 4.82001 21.8899C5.03375 21.7609 5.18853 21.5767 5.27329 21.3408C5.38384 21.0313 5.38753 20.718 5.30645 20.4011C5.2696 20.2574 5.19958 20.1247 5.0964 20.0178C4.94531 19.8594 4.76842 19.7894 4.65418 19.7783C4.23775 19.782 3.63338 19.7783 3.63338 19.7783L3.6297 21.9599Z" fill="#1313BB"/>
<path d="M33.7861 23.0767H32.7432L32.7285 21.9895L35.1386 21.9822L35.1312 24.9598C35.1312 24.9598 34.8917 25.2804 34.6153 25.4278C34.3463 25.5937 34.0514 25.6895 33.7419 25.7521C33.3771 25.8258 33.0049 25.8442 32.6327 25.8184C32.0062 25.7742 31.4497 25.5605 31.0038 25.1035C30.6316 24.7203 30.4179 24.2522 30.3294 23.729C30.3184 23.6589 30.3184 23.5889 30.3184 23.5189C30.3184 22.6639 30.3184 21.809 30.3184 20.954C30.3184 20.7698 30.3515 20.5892 30.3994 20.416C30.5174 19.9738 30.7053 19.5647 31.0149 19.2146C31.3834 18.7982 31.8477 18.5734 32.3968 18.5071C32.8427 18.4518 33.2812 18.4886 33.7087 18.6176C34.3536 18.8129 34.7774 19.2367 34.9949 19.8706C35.1644 20.3054 35.1349 20.9172 35.1349 20.9172H33.8119C33.8119 20.9172 33.8119 20.6555 33.7935 20.5265C33.7714 20.3791 33.7272 20.2391 33.6608 20.1064C33.4876 19.7711 33.1707 19.6089 32.7801 19.6421C32.3931 19.6753 32.1241 19.8816 31.9472 20.217C31.8182 20.4602 31.7482 20.7218 31.7482 20.9982C31.7482 21.7721 31.7445 22.5423 31.7482 23.3162C31.7519 23.6663 31.8514 23.9906 32.032 24.2891C32.1352 24.4623 32.2752 24.606 32.4594 24.6982C32.8427 24.8861 33.3955 24.8087 33.705 24.5323C33.7603 24.4807 33.7935 24.4291 33.7935 24.3517C33.7935 23.9501 33.7861 23.0767 33.7861 23.0767Z" fill="#1313BB"/>
<path d="M13.4805 25.7153H11.9253L11.5752 24.2006L9.59261 24.1933L9.23515 25.7116L7.66895 25.7153L9.94639 18.6766L11.262 18.6692L13.4805 25.7153ZM11.262 23.0398L10.5839 20.5818L9.8948 23.0361L11.262 23.0398Z" fill="#1313BB"/>
<path d="M14.335 18.6765L19.2326 18.6729V19.7452H17.4895V25.6931L16.0412 25.6968L16.0375 19.7452H14.335V18.6765Z" fill="#1313BB"/>
<path d="M22.0668 18.6543H20.6406V25.7593H22.0668V18.6543Z" fill="#1313BB"/>
</svg>
