<svg width="65" height="80" viewBox="0 0 65 80" fill="none" xmlns="http://www.w3.org/2000/svg">
<path d="M64.5 42C64.5 59.9565 50.1659 74.5 32.5 74.5C14.8341 74.5 0.5 59.9565 0.5 42C0.5 24.0435 14.8341 9.5 32.5 9.5C50.1659 9.5 64.5 24.0435 64.5 42Z" fill="#FFE6A5" stroke="#1C1F35"/>
<path d="M48.5 13.5C48.5 20.6627 42.4731 26.5 35 26.5C27.5269 26.5 21.5 20.6627 21.5 13.5C21.5 6.33728 27.5269 0.5 35 0.5C42.4731 0.5 48.5 6.33728 48.5 13.5Z" fill="#FFE6A5" stroke="#1C1F35"/>
<path d="M60.5 66.5C60.5 73.6627 54.4731 79.5 47 79.5C39.5269 79.5 33.5 73.6627 33.5 66.5C33.5 59.3373 39.5269 53.5 47 53.5C54.4731 53.5 60.5 59.3373 60.5 66.5Z" fill="#FFE6A5" stroke="#1C1F35"/>
<path d="M35.026 20.9304C39.012 20.9304 42.2434 17.6991 42.2434 13.713C42.2434 9.72694 39.012 6.49561 35.026 6.49561C31.0399 6.49561 27.8086 9.72694 27.8086 13.713C27.8086 17.6991 31.0399 20.9304 35.026 20.9304Z" stroke="#1C1F35" stroke-linecap="round" stroke-linejoin="round"/>
<path d="M28.3643 11.4923H41.6887" stroke="#1C1F35" stroke-linecap="round" stroke-linejoin="round"/>
<path d="M28.3643 15.9337H41.6887" stroke="#1C1F35" stroke-linecap="round" stroke-linejoin="round"/>
<path d="M35.0259 20.3752C36.559 20.3752 37.8018 17.3924 37.8018 13.713C37.8018 10.0336 36.559 7.05078 35.0259 7.05078C33.4928 7.05078 32.25 10.0336 32.25 13.713C32.25 17.3924 33.4928 20.3752 35.0259 20.3752Z" stroke="#1C1F35" stroke-linecap="round" stroke-linejoin="round"/>
<path d="M53.5128 70.3391V63.6787C53.5123 63.5825 53.4864 63.4881 53.4376 63.4051C53.3889 63.3221 53.3192 63.2533 53.2354 63.2058L47.281 59.8621C47.2008 59.8158 47.1098 59.7915 47.0171 59.7915C46.9245 59.7915 46.8335 59.8158 46.7533 59.8621L40.7989 63.2058C40.7151 63.2533 40.6453 63.3221 40.5966 63.4051C40.5479 63.4881 40.522 63.5825 40.5215 63.6787V70.3391C40.522 70.4353 40.5479 70.5297 40.5966 70.6127C40.6453 70.6957 40.7151 70.7645 40.7989 70.812L46.7533 74.1557C46.8335 74.2019 46.9245 74.2263 47.0171 74.2263C47.1098 74.2263 47.2008 74.2019 47.281 74.1557L53.2354 70.812C53.3192 70.7645 53.3889 70.6957 53.4376 70.6127C53.4864 70.5297 53.5123 70.4353 53.5128 70.3391V70.3391Z" stroke="#1C1F35" stroke-linecap="round" stroke-linejoin="round"/>
<path d="M53.5128 63.4001L47.0787 67.0088L40.5215 63.4001" stroke="#1C1F35" stroke-linecap="round" stroke-linejoin="round"/>
<path d="M47.0176 67.0089V74.2263" stroke="#1C1F35" stroke-linecap="round" stroke-linejoin="round"/>
<path d="M37.5889 39.0931V33.3877H38.7915C41.6261 33.3877 44.1808 35.0971 45.2622 37.7173L45.5449 38.4023C45.6807 38.7314 45.4387 39.0931 45.0827 39.0931H37.5889Z" fill="#FFD550" stroke="#1C1F35"/>
<path d="M16.0361 42.8967H37.5897" stroke="#1C1F35" stroke-linecap="round" stroke-linejoin="round"/>
<path d="M39.4911 53.0396C41.5917 53.0396 43.2946 51.3367 43.2946 49.2361C43.2946 47.1354 41.5917 45.4325 39.4911 45.4325C37.3904 45.4325 35.6875 47.1354 35.6875 49.2361C35.6875 51.3367 37.3904 53.0396 39.4911 53.0396Z" stroke="#1C1F35" stroke-linecap="round" stroke-linejoin="round"/>
<path d="M23.0086 53.0396C25.1093 53.0396 26.8122 51.3367 26.8122 49.2361C26.8122 47.1354 25.1093 45.4325 23.0086 45.4325C20.908 45.4325 19.2051 47.1354 19.2051 49.2361C19.2051 51.3367 20.908 53.0396 23.0086 53.0396Z" fill="#FFD550" stroke="#1C1F35" stroke-linecap="round" stroke-linejoin="round"/>
<path d="M35.6875 48.6019H26.8125" stroke="#1C1F35" stroke-linecap="round" stroke-linejoin="round"/>
<path d="M19.1741 48.6019H17.1138C16.828 48.6019 16.5539 48.4851 16.3518 48.277C16.1497 48.069 16.0361 47.7868 16.0361 47.4926V31.9613C16.0361 31.6671 16.1497 31.3849 16.3518 31.1769C16.5539 30.9688 16.828 30.8519 17.1138 30.8519H37.5897V45.7176" stroke="#1C1F35" stroke-linecap="round" stroke-linejoin="round"/>
<path d="M37.5889 39.0934H46.4639V47.5458C46.4639 47.826 46.347 48.0947 46.1389 48.2929C45.9309 48.491 45.6487 48.6023 45.3545 48.6023H43.215" stroke="#1C1F35" stroke-linecap="round" stroke-linejoin="round"/>
<path d="M18.5713 38.6974L18.5713 33.3877" stroke="#1C1F35" stroke-linecap="round" stroke-linejoin="round"/>
<path d="M29.9823 40.361L35.292 40.361" stroke="#1C1F35" stroke-linecap="round" stroke-linejoin="round"/>
<path d="M29.982 51.0767L31.8838 51.0767" stroke="#1C1F35" stroke-linecap="round" stroke-linejoin="round"/>
</svg>
