<svg width="48" height="43" viewBox="0 0 48 43" fill="none" xmlns="http://www.w3.org/2000/svg">
<path d="M23.999 17.7387H47.1722C46.5705 15.5061 45.6558 13.4023 44.4765 11.4778H23.999V17.7387Z" fill="#338AF3"/>
<path d="M9.06116 42.7814H38.9405C41.1308 41.0369 43.0092 38.918 44.4782 36.5205H3.52344C4.99259 38.9179 6.87097 41.0369 9.06116 42.7814Z" fill="#338AF3"/>
<path d="M8.34866 5.80615C6.46184 7.43093 4.83069 9.34428 3.52344 11.4777H8.34866V5.80615Z" fill="#338AF3"/>
<path d="M24 23.9985C24 21.5538 24 19.5079 24 17.7375H14.6087V23.9985H8.34778V17.7375H0.826781C0.28875 19.7339 0 21.8322 0 23.9985C0 26.1647 0.28875 28.263 0.826781 30.2594H47.1733C47.7112 28.263 48 26.1647 48 23.9985H24Z" fill="#338AF3"/>
<path d="M24.0007 0C20.668 0 17.4941 0.679969 14.6094 1.90762V11.4783H24.0007C24.0007 9.29278 24.0007 7.434 24.0007 5.21737H38.9404C34.8406 1.95225 29.649 0 24.0007 0Z" fill="#338AF3"/>
</svg>
