<svg width="25" height="28" viewBox="0 0 25 28" fill="none" xmlns="http://www.w3.org/2000/svg">
<path d="M0.0108267 13.9973C0.0108267 9.75229 0.0216147 5.50726 3.89455e-05 1.25683C-0.005355 0.523253 0.550222 -0.00535304 1.24604 4.09057e-05C8.74362 0.0162227 16.2358 0.0162227 23.7334 4.09057e-05C24.4184 4.09057e-05 24.974 0.512466 24.974 1.25144C24.9632 6.77483 24.974 12.2982 24.9686 17.827C24.9632 22.6492 21.7107 26.7055 17.0017 27.7627C16.3005 27.9191 15.5939 28 14.8765 28C10.3187 28 5.76077 28 1.20828 28C0.501676 28 0.0162209 27.5092 0.0162209 26.8025C0.010827 22.5359 0.0108267 18.2693 0.0108267 13.9973Z" fill="#073763"/>
<path d="M11.2733 20.8207C11.2302 19.1647 11.2518 17.5142 11.2895 15.8637C11.3381 13.4741 13.3986 11.0846 15.7611 10.8311C18.5444 10.5344 20.8476 11.4676 22.4388 13.8625C23.647 15.6803 23.9167 17.6868 23.4259 19.7743C22.757 22.6277 21.031 24.618 18.3286 25.7561C16.964 26.3279 15.5453 26.6515 14.0512 26.5706C13.2206 26.5275 12.4007 26.4088 11.597 26.1984C11.3596 26.1391 11.2895 26.0312 11.2949 25.7993C11.3003 25.0118 11.2841 24.2243 11.2787 23.4368C11.2679 22.5683 11.2733 21.6945 11.2733 20.8207Z" fill="#99DC18"/>
<path d="M23.512 13.253C22.8917 12.2767 22.1042 11.4999 21.1657 10.8689C20.2541 10.2539 19.2292 9.93031 18.1559 9.71995C17.5086 9.59589 16.8559 9.55274 16.2032 9.55274C12.4652 9.55274 8.72185 9.54734 4.98385 9.54734C4.91912 9.54734 4.85439 9.54734 4.7627 9.54734C4.88136 9.25068 5.03779 8.99716 5.18882 8.74364C6.02488 7.33583 7.00658 6.04128 8.18785 4.90316C9.49858 3.63558 11.0197 2.71861 12.7242 2.07673C13.7544 1.69376 14.8116 1.49419 15.9012 1.39709C17.3576 1.26764 18.8139 1.32697 20.2703 1.31619C21.3005 1.3054 22.3362 1.32158 23.3664 1.31079C23.5444 1.31079 23.5822 1.36473 23.5822 1.53194C23.5768 2.68625 23.5606 10.3834 23.539 13.075C23.539 13.1289 23.5606 13.1829 23.512 13.253Z" fill="#0190B3"/>
<path d="M11.2733 1.26762C10.5883 1.63981 9.92481 2.02817 9.28833 2.45969C7.54608 3.64096 6.00881 5.03799 4.84372 6.8072C3.90517 8.2366 3.31184 9.82781 2.87493 11.473C2.51353 12.8376 2.21687 14.2131 2.31935 15.6371C2.47578 17.8108 2.90729 19.9145 4.05081 21.8078C5.00014 23.3774 6.32166 24.6018 7.7996 25.6644C8.19336 25.9503 8.6033 26.2146 9.03481 26.4627C8.94851 26.5275 8.87839 26.5005 8.80827 26.5005C6.38099 26.5005 3.95372 26.5005 1.53184 26.5059C1.33765 26.5059 1.27832 26.4573 1.27832 26.2578C1.28371 18.005 1.28371 9.7523 1.27832 1.49956C1.27832 1.33775 1.28911 1.25684 1.48868 1.25684C4.70347 1.26223 7.91287 1.26223 11.1277 1.26223C11.1762 1.26762 11.2248 1.26762 11.2733 1.26762Z" fill="#FD7A15"/>
<path d="M10.0165 25.6213C9.97338 25.6105 9.9518 25.6105 9.93562 25.5997C8.84065 24.8877 7.74568 24.1649 6.8341 23.2156C5.08107 21.387 3.96992 19.2456 3.64089 16.7051C3.38198 14.7309 3.6301 12.8215 4.23422 10.939C4.27198 10.8203 4.31513 10.7664 4.45537 10.7664C7.1901 10.7718 9.93023 10.7718 12.665 10.7718C12.6865 10.7718 12.7027 10.7771 12.7243 10.7825C12.7243 10.8634 12.6596 10.8742 12.6164 10.9066C11.1331 12.0555 10.3725 13.5982 10.1082 15.4213C10.0219 16.0039 10.0165 16.5864 10.0165 17.1744C10.0165 19.9091 10.0165 22.6492 10.0165 25.3839C10.0165 25.4595 10.0165 25.5296 10.0165 25.6213Z" fill="#F7D80F"/>
</svg>
