<svg width="32" height="19" viewBox="0 0 32 19" fill="none" xmlns="http://www.w3.org/2000/svg">
<path d="M5.58663 18.4374C5.24292 18.3451 5.03258 18.1091 4.85303 17.8064C3.29349 15.1131 1.7237 12.4301 0.153902 9.74198C-0.0513006 9.388 -0.0513006 9.05455 0.153902 8.70057C1.74935 5.97651 3.33966 3.24733 4.92998 0.518136C5.13005 0.179552 5.41221 0.0102607 5.80722 0.0102607C9.00838 0.0102607 12.2147 0.0102607 15.4158 0.0102607C15.7954 0.0102607 16.0776 0.169292 16.2674 0.497616C17.9244 3.33967 19.5814 6.18685 21.2436 9.0289C21.2743 9.08533 21.3051 9.13663 21.3462 9.21871C19.5609 9.21871 17.8013 9.21871 16.016 9.21871C16.0519 9.2854 16.0673 9.33157 16.093 9.37261C16.8676 10.7064 17.6474 12.0402 18.4272 13.3741C18.6067 13.6819 18.8786 13.8409 19.2377 13.8409C20.6793 13.8409 22.1157 13.8409 23.5572 13.8409C23.9112 13.8409 24.178 13.6921 24.3575 13.3894C25.086 12.148 25.8093 10.9065 26.5326 9.65989C26.6917 9.38287 26.7071 9.08533 26.5429 8.80831C25.8093 7.54118 25.0757 6.27919 24.3319 5.01719C24.1626 4.72991 23.8855 4.59653 23.547 4.59653C22.0028 4.59653 20.4535 4.59653 18.9094 4.59653C18.8478 4.59653 18.7863 4.59653 18.6991 4.59653C18.7401 4.52471 18.7606 4.47341 18.7914 4.42211C19.6173 3.00108 20.4484 1.58519 21.2743 0.159032C21.341 0.0410407 21.418 0 21.5514 0C23.1006 0.00513006 24.655 0.00513006 26.2043 0C26.5891 0 26.8712 0.164162 27.0662 0.497616C28.6565 3.22681 30.2468 5.95599 31.8423 8.68005C32.0526 9.03916 32.0526 9.37774 31.8423 9.73684C30.2571 12.4455 28.677 15.1593 27.0969 17.8731C26.9379 18.1501 26.7173 18.3246 26.4249 18.422C23.075 18.422 19.7251 18.422 16.3751 18.422C16.0366 18.3297 15.8262 18.104 15.6518 17.8064C14.0256 15.0054 12.3891 12.2095 10.7577 9.40852C10.7218 9.35209 10.691 9.29053 10.6449 9.19306C12.4353 9.19306 14.2 9.19306 15.9801 9.19306C15.9493 9.1315 15.9391 9.10072 15.9186 9.07507C15.1337 7.73099 14.3539 6.38692 13.569 5.04798C13.3894 4.74017 13.1124 4.58627 12.7584 4.58627C11.3374 4.58627 9.91127 4.58627 8.49024 4.58627C8.10549 4.58627 7.8182 4.7453 7.62326 5.07875C6.91531 6.29458 6.20224 7.51553 5.49429 8.73135C5.30448 9.05455 5.30448 9.37261 5.49429 9.6958C6.20224 10.9065 6.91018 12.1172 7.61813 13.333C7.8182 13.6716 8.10036 13.8358 8.49537 13.8358C10.0241 13.8306 11.5529 13.8358 13.0765 13.8358C13.1432 13.8358 13.2099 13.8358 13.3022 13.8358C13.2561 13.9178 13.2304 13.9691 13.2048 14.0204C12.661 14.9541 12.1121 15.8878 11.5683 16.8215C11.2553 17.355 10.9527 17.8936 10.6449 18.4323C8.95708 18.4374 7.27442 18.4374 5.58663 18.4374Z" fill="#00AEEB"/>
</svg>
