<svg width="110" height="44" viewBox="0 0 110 44" fill="none" xmlns="http://www.w3.org/2000/svg">
<g filter="url(#filter0_d_43_2769)">
<rect width="109.199" height="44" rx="22" fill="white"/>
<mask id="mask0_43_2769" style="mask-type:luminance" maskUnits="userSpaceOnUse" x="24" y="8" width="62" height="28">
<path d="M85.1989 8H24V36H85.1989V8Z" fill="white"/>
</mask>
<g mask="url(#mask0_43_2769)">
<path d="M56.4882 14.1267C57.352 14.1267 58.0525 13.4263 58.0525 12.5624C58.0525 11.6984 57.352 10.998 56.4882 10.998C55.624 10.998 54.9238 11.6984 54.9238 12.5624C54.9238 13.4263 55.624 14.1267 56.4882 14.1267Z" fill="#2B4399"/>
<path d="M63.2587 11.1287C64.1225 11.1287 64.823 10.4283 64.823 9.56434C64.823 8.70038 64.1225 8 63.2587 8C62.3945 8 61.6943 8.70038 61.6943 9.56434C61.6943 10.4283 62.3945 11.1287 63.2587 11.1287Z" fill="#2B4399"/>
<path d="M69.9564 14.1267C70.8203 14.1267 71.5208 13.4263 71.5208 12.5624C71.5208 11.6984 70.8203 10.998 69.9564 10.998C69.0922 10.998 68.3921 11.6984 68.3921 12.5624C68.3921 13.4263 69.0922 14.1267 69.9564 14.1267Z" fill="#2B4399"/>
<path d="M54.3799 20.126C55.2438 20.126 55.9442 19.4256 55.9442 18.5616C55.9442 17.6977 55.2438 16.9973 54.3799 16.9973C53.5158 16.9973 52.8154 17.6977 52.8154 18.5616C52.8154 19.4256 53.5158 20.126 54.3799 20.126Z" fill="#1CBFE5"/>
<path d="M72.1405 20.126C73.0044 20.126 73.7048 19.4256 73.7048 18.5616C73.7048 17.6977 73.0044 16.9973 72.1405 16.9973C71.2763 16.9973 70.5762 17.6977 70.5762 18.5616C70.5762 19.4256 71.2763 20.126 72.1405 20.126Z" fill="#1CBFE5"/>
<path d="M34.2379 27.4463H26.6592C26.6841 28.1123 26.9661 28.7427 27.446 29.2051C27.9086 29.6302 28.519 29.8579 29.147 29.8399C29.5796 29.868 30.0104 29.7631 30.3818 29.5395C30.7531 29.3158 31.0472 28.984 31.2247 28.5884H34.0496C33.7591 29.5744 33.1543 30.4384 32.3273 31.0488C31.4226 31.7084 30.3237 32.0472 29.2047 32.0117C28.267 32.0273 27.3415 31.798 26.5195 31.3465C25.7342 30.9107 25.0909 30.2579 24.6666 29.4663C24.2109 28.6021 23.982 27.6364 24.0014 26.6596C23.9799 25.6779 24.2056 24.7065 24.6575 23.8347C25.0703 23.0471 25.7036 22.3969 26.48 21.9636C27.3082 21.5375 28.2256 21.3138 29.157 21.3106C30.0883 21.3074 31.0072 21.5249 31.8383 21.9453C32.6081 22.357 33.2414 22.984 33.6608 23.7496C34.1005 24.5753 34.3221 25.4995 34.3047 26.4348C34.3095 26.7732 34.2871 27.1115 34.2379 27.4463ZM31.5983 25.6876C31.6039 25.3806 31.5415 25.0762 31.4155 24.7963C31.2894 24.5163 31.1029 24.2678 30.8693 24.0686C30.3832 23.6595 29.7638 23.4434 29.1288 23.4611C28.5282 23.4439 27.9434 23.6544 27.4915 24.0504C27.03 24.4789 26.7406 25.061 26.6775 25.6876H31.5983Z" fill="#1CBFE5"/>
<path d="M36.6013 23.844C37.0188 23.0599 37.651 22.4109 38.4238 21.9729C39.2355 21.5207 40.1527 21.2922 41.0817 21.3107C42.2227 21.2651 43.3459 21.6042 44.2711 22.2736C45.1345 22.9491 45.7341 23.9056 45.9661 24.977H43.1381C43.0069 24.5522 42.7415 24.1813 42.3818 23.92C41.9942 23.6554 41.5324 23.5213 41.0635 23.5372C40.7236 23.5232 40.3852 23.5896 40.0759 23.731C39.7666 23.8725 39.4951 24.085 39.2835 24.3513C38.8491 24.892 38.6304 25.6635 38.6304 26.6598C38.6304 27.6561 38.8491 28.4094 39.2835 28.9532C39.4956 29.2189 39.7672 29.431 40.0764 29.5724C40.3856 29.7138 40.7237 29.7806 41.0635 29.7672C42.1246 29.7672 42.8161 29.2934 43.1381 28.3457H45.9691C45.7211 29.4043 45.1201 30.3471 44.265 31.0187C43.3493 31.703 42.2271 32.0535 41.0847 32.012C40.1555 32.0295 39.2383 31.7999 38.4269 31.3467C37.654 30.9088 37.0219 30.2597 36.6044 29.4756C36.1734 28.5995 35.9492 27.6362 35.9492 26.6598C35.9492 25.6835 36.1734 24.7201 36.6044 23.844H36.6013Z" fill="#2B4399"/>
<path d="M50.5007 17.9966V31.8417H47.8823V17.9966H50.5007Z" fill="#2B4399"/>
<path d="M55.7045 21.4775V31.8416H53.083V21.4775H55.7045Z" fill="#2B4399"/>
<path d="M67.0646 22.4982C67.8258 23.2758 68.2068 24.3642 68.2068 25.7635V31.8386H65.5884V26.1189C65.6373 25.4306 65.4198 24.7498 64.9809 24.2174C64.7637 23.9936 64.5013 23.8187 64.2109 23.7045C63.9208 23.5903 63.6094 23.5394 63.2981 23.5552C62.9819 23.5392 62.666 23.5898 62.3707 23.7039C62.0758 23.818 61.8079 23.9929 61.5849 24.2174C61.1381 24.7464 60.9139 25.428 60.9592 26.1189V31.8416H58.3408V21.4776H60.9592V22.7685C61.3143 22.3149 61.7723 21.9524 62.2957 21.7114C62.8561 21.4525 63.4673 21.3218 64.0848 21.3287C64.6352 21.3072 65.1841 21.4001 65.6971 21.6014C66.2099 21.8026 66.6755 22.108 67.0646 22.4982Z" fill="#2B4399"/>
<path d="M73.4499 21.4775V31.8416H70.8315V21.4775H73.4499Z" fill="#2B4399"/>
<path d="M75.8371 23.844C76.2535 23.0592 76.8859 22.41 77.6596 21.9729C78.4712 21.5207 79.3882 21.2922 80.3174 21.3107C81.4583 21.2651 82.5816 21.6042 83.5068 22.2736C84.3701 22.9486 84.9691 23.9054 85.1988 24.977H82.3738C82.2426 24.5522 81.9771 24.1813 81.6175 23.92C81.2281 23.6541 80.7639 23.52 80.2931 23.5372C79.9532 23.5232 79.6148 23.5896 79.3056 23.731C78.9961 23.8725 78.7245 24.085 78.5131 24.3513C78.0788 24.892 77.8601 25.6635 77.8601 26.6598C77.8601 27.6561 78.0788 28.4094 78.5131 28.9532C78.7251 29.2189 78.9967 29.431 79.3059 29.5724C79.6151 29.7138 79.9532 29.7806 80.2931 29.7672C81.3541 29.7672 82.0458 29.2934 82.3678 28.3457H85.1927C84.9466 29.4045 84.3467 30.3476 83.4917 31.0187C82.5758 31.703 81.4538 32.0535 80.3114 32.012C79.3819 32.0295 78.4648 31.7999 77.6535 31.3467C76.8798 30.9097 76.2474 30.2604 75.831 29.4756C75.4 28.5995 75.1758 27.6362 75.1758 26.6598C75.1758 25.6835 75.4 24.7201 75.831 23.844H75.8371Z" fill="#2B4399"/>
</g>
</g>
<defs>
<filter id="filter0_d_43_2769" x="-32" y="-26" width="173.199" height="108" filterUnits="userSpaceOnUse" color-interpolation-filters="sRGB">
<feFlood flood-opacity="0" result="BackgroundImageFix"/>
<feColorMatrix in="SourceAlpha" type="matrix" values="0 0 0 0 0 0 0 0 0 0 0 0 0 0 0 0 0 0 127 0" result="hardAlpha"/>
<feOffset dy="6"/>
<feGaussianBlur stdDeviation="16"/>
<feColorMatrix type="matrix" values="0 0 0 0 0.0823529 0 0 0 0 0.109804 0 0 0 0 0.152941 0 0 0 0.06 0"/>
<feBlend mode="normal" in2="BackgroundImageFix" result="effect1_dropShadow_43_2769"/>
<feBlend mode="normal" in="SourceGraphic" in2="effect1_dropShadow_43_2769" result="shape"/>
</filter>
</defs>
</svg>
