<svg width="28" height="28" viewBox="0 0 28 28" fill="none" xmlns="http://www.w3.org/2000/svg">
<path d="M27.1162 13.5799V13.4974C27.1162 12.6306 27.0338 11.805 26.8278 10.9382V10.7319C25.509 4.5404 20.0693 0.0825528 13.723 0H13.5581C6.05788 0 0 6.06763 0 13.5799C0 21.0922 6.05788 27.1599 13.5581 27.1599C14.918 27.1599 16.2368 26.9535 17.5143 26.582L17.9676 26.4582L18.833 26.128L19.9045 26.5407L23.4073 27.9028C23.9843 28.1505 24.1491 27.9028 23.7782 27.4075L18.1736 19.8127C17.7615 19.2761 17.061 19.111 16.484 19.3999C15.5774 19.8539 14.5884 20.1016 13.5993 20.1429C9.97284 20.1429 7.00571 17.2123 6.9645 13.5799C6.92329 9.94761 9.89042 6.97571 13.5169 6.93443C16.6489 6.93443 19.3687 9.12208 19.9869 12.1765V12.3829C20.0693 12.7544 20.0693 13.1259 20.1105 13.4974V13.6212C20.1105 14.034 20.0693 14.4055 19.9869 14.8182L22.2122 15.231C22.2946 14.6944 22.3771 14.1578 22.3771 13.6212V13.5387H24.9321V13.6212C24.9321 14.3229 24.8909 15.0246 24.7673 15.7263V15.8089H24.6848L22.3771 15.3548C22.2534 15.8914 22.0886 16.428 21.8825 16.9646L21.8413 17.0472L21.7589 17.0059L19.6984 16.1391C19.5336 16.5106 19.3687 16.8408 19.1215 17.171L19.0803 17.2535C18.8742 17.5837 18.5857 17.8727 18.3385 18.1616L19.9457 19.7301C20.3166 19.3586 20.6875 18.9046 20.9759 18.4505L21.0171 18.368L21.0996 18.4093L23.0776 19.7301C23.4485 19.1522 23.7782 18.5331 24.0667 17.8727L24.1079 17.7901L24.1903 17.8314L26.2096 18.6569C26.5393 17.8727 26.7865 17.0472 26.9514 16.2216V16.1391C27.0338 15.2723 27.1162 14.4467 27.1162 13.5799Z" fill="#1A2F5C"/>
</svg>
