<svg width="37" height="28" viewBox="0 0 37 28" fill="none" xmlns="http://www.w3.org/2000/svg">
<path d="M5.10494 17.0412H2.03076L2.02344 2.13683H5.96864L8.75371 12.7644L11.5461 2.12209L15.462 2.11841V17.0412H12.461V12.5839L12.6806 7.20563L9.75282 17.0043H7.70336L4.83412 7.11354L5.06834 12.7312L5.10494 17.0412Z" fill="#007C9E"/>
<path d="M21.9038 2.11841H18.9395V17.0117H21.9038V2.11841Z" fill="#007C9E"/>
<path d="M34.8959 24.7766C34.8923 24.8982 34.852 25.0124 34.7751 25.1008C34.6251 25.2702 34.4458 25.4028 34.2481 25.506C33.9663 25.6533 33.6626 25.7381 33.3478 25.7896C33.0331 25.8412 32.7184 25.8449 32.4036 25.8265C32.1108 25.8117 31.8254 25.7454 31.5509 25.6312C30.8409 25.3292 30.4017 24.7803 30.1822 24.0472C30.1236 23.8483 30.0943 23.6457 30.098 23.4394C30.1016 22.6732 30.109 21.907 30.098 21.1408C30.0907 20.6766 30.2041 20.2456 30.3944 19.8294C30.5042 19.5936 30.6433 19.3763 30.819 19.1847C31.1923 18.7758 31.6607 18.5585 32.206 18.4995C32.5866 18.459 32.9672 18.4848 33.3369 18.5769C34.0798 18.7648 34.5665 19.2252 34.7825 19.9693C34.8923 20.3193 34.8959 20.9455 34.8959 20.9455H33.5747C33.5747 20.9455 33.5564 20.5403 33.5125 20.3819C33.4942 20.3156 33.4723 20.2456 33.443 20.183C33.2893 19.822 33.0002 19.6341 32.5756 19.6562C32.206 19.6746 31.9315 19.8515 31.7485 20.1719C31.6058 20.4224 31.5253 20.6913 31.5253 20.9787C31.5216 21.767 31.5216 22.559 31.5253 23.3473C31.5289 23.6825 31.6278 23.9993 31.7998 24.2867C32.0413 24.6919 32.4036 24.8429 32.8574 24.7877C33.0807 24.7619 33.2893 24.6808 33.4613 24.5298C33.5125 24.4856 33.5418 24.4377 33.5418 24.364C33.5381 23.9625 33.5308 23.0489 33.5308 23.0489H32.5061V21.9806H34.8849C34.8959 21.977 34.8959 24.3346 34.8959 24.7766Z" fill="#007C9E"/>
<path d="M34.9251 11.6814C34.8116 10.9372 34.4493 10.3368 33.8601 9.87265C33.6039 9.67373 33.3001 9.49691 32.9927 9.37903C33.4319 9.19484 34.054 8.71596 34.4822 7.87607C34.6981 7.45244 34.786 6.98829 34.8116 6.51309C34.8336 6.10052 34.8153 5.68794 34.7494 5.27905C34.614 4.43547 34.2224 3.73925 33.5563 3.20511C33.183 2.90304 32.7621 2.6857 32.3157 2.52362C31.5581 2.25102 30.7786 2.11841 29.9771 2.11841C28.5681 2.11841 25.4902 2.12209 25.4902 2.12209L25.4939 17.0117C25.4939 17.0117 29.4025 17.0117 31.2726 17.0117C31.3239 17.0117 31.3788 17.0117 31.43 17.0043C31.6459 16.9712 31.8582 16.9307 32.0668 16.8754C32.8463 16.6618 33.5234 16.2713 34.0723 15.6672C34.4603 15.2362 34.7384 14.7462 34.8775 14.1752C34.936 13.9358 34.9726 13.689 34.9873 13.4422C35.0165 12.8528 35.0129 12.2634 34.9251 11.6814ZM28.4912 4.62703C28.4912 4.62703 29.6989 4.63808 30.2259 4.63808C30.3797 4.63808 30.5297 4.64913 30.6798 4.68965C31.0677 4.79648 31.3531 5.03223 31.5325 5.39692C31.613 5.55532 31.6642 5.72478 31.6935 5.89791C31.774 6.36206 31.7594 6.82621 31.6349 7.28299C31.5764 7.49665 31.4849 7.69188 31.3531 7.8687C31.1921 8.07868 30.9908 8.23339 30.742 8.32549C30.6358 8.36232 30.5297 8.38443 30.4162 8.38443C29.8234 8.38443 28.4912 8.38811 28.4912 8.38811V4.62703ZM31.9204 13.3059C31.8765 13.5195 31.807 13.7258 31.6898 13.9137C31.4007 14.3889 30.9799 14.6357 30.4236 14.6394C29.8344 14.6468 28.4876 14.6468 28.4876 14.6468V10.5947C28.4876 10.5947 29.7429 10.602 30.2991 10.602C30.4748 10.602 30.6505 10.6131 30.8225 10.661C31.2397 10.7788 31.5508 11.0293 31.7447 11.4161C31.8472 11.6187 31.9094 11.8324 31.9424 12.0534C32.0082 12.4734 32.0082 12.8896 31.9204 13.3059Z" fill="#007C9E"/>
<path d="M6.93491 25.7342C6.93491 25.7342 5.69059 22.8609 5.6174 22.7136C5.71255 22.6731 5.89188 22.5773 5.99069 22.4999C6.27249 22.2789 6.45548 21.9916 6.56893 21.6527C6.65677 21.3948 6.6897 21.1259 6.70068 20.8533C6.71166 20.5697 6.67873 20.2897 6.59455 20.0171C6.36399 19.2509 5.61008 18.6873 4.81226 18.6836C3.99247 18.6799 2.16992 18.6983 2.16992 18.6983L2.17724 25.7379L3.60454 25.7416V23.0488H4.2633L5.36122 25.7379H6.93491V25.7342ZM5.18921 21.4206C5.11967 21.5864 5.00622 21.719 4.86349 21.8295C4.74272 21.9179 4.63293 21.9621 4.55607 21.9768C4.29989 21.9768 3.56794 21.9768 3.56794 21.9768V19.7666C3.56794 19.7666 4.37309 19.7666 4.51948 19.7666C4.68051 19.7666 4.80128 19.8219 4.92937 19.914C5.0721 20.0171 5.17457 20.1534 5.22947 20.3192C5.3539 20.6912 5.34292 21.0596 5.18921 21.4206Z" fill="#007C9E"/>
<path d="M11.1437 18.6616L9.88841 18.6653L7.59375 25.7344H9.16744L9.53341 24.1872H11.4731L11.8391 25.7344H13.3761L11.1437 18.6616ZM11.1803 23.0453H9.82619L10.4849 20.5772L11.1803 23.0453Z" fill="#007C9E"/>
<path d="M37 28H0V0H37V28ZM1.20772 26.7844H35.7923V1.21563H1.20772V26.7844Z" fill="#007C9E"/>
<path d="M21.9044 18.6616H20.5137V25.6975H21.9044V18.6616Z" fill="#007C9E"/>
<path d="M19.1218 18.6616H14.2178V19.7299H15.9379V25.7344H17.4017V19.7299H19.1218V18.6616Z" fill="#007C9E"/>
<path d="M27.1008 18.6616V23.1484L25.0147 18.6616H23.624V25.6975H25.0147V21.1113L27.1008 25.5576V25.6975H28.4915V18.6616H27.1008Z" fill="#007C9E"/>
</svg>
