<svg width="28" height="28" viewBox="0 0 28 28" fill="none" xmlns="http://www.w3.org/2000/svg">
<path d="M14.0888 6.11376C13.6855 6.12289 13.3005 6.02251 12.9247 5.90389C12.4664 5.75789 12.0722 5.87651 11.7514 6.20501C11.4214 6.53351 11.2931 6.94414 11.4581 7.39127C11.7331 8.15777 11.7239 8.91514 11.4489 9.68165C11.1922 10.3934 11.7881 11.2238 12.5489 11.242C12.6497 11.242 12.7322 11.2055 12.8239 11.169C14.6938 10.3843 16.7288 11.4701 17.0954 13.4594C17.1779 13.9248 17.1412 14.3902 17.0129 14.8464C16.9671 14.9924 16.9304 15.1384 16.9029 15.2935C16.7746 16.1513 17.5721 16.8448 18.4062 16.5802C19.1762 16.3429 19.937 16.2973 20.6887 16.5893C21.9903 17.1003 22.7878 18.4417 22.6136 19.8195C22.4303 21.1974 21.3578 22.2742 19.9737 22.4749C19.4328 22.5479 18.9195 22.4658 18.4154 22.3015C17.9479 22.1464 17.5354 22.265 17.2054 22.6027C16.8754 22.9403 16.7563 23.3418 16.9212 23.8163C17.2512 24.7927 17.1962 25.7326 16.6279 26.6086C15.8763 27.7674 14.4096 28.2784 13.0897 27.8496C11.7239 27.4024 10.8806 26.1158 10.9814 24.6558C11.0731 23.3327 12.1272 22.1829 13.4655 21.9365C14.0522 21.827 14.6296 21.8727 15.1796 22.0917C15.7846 22.338 16.5546 21.9 16.7196 21.243C16.7746 21.0058 16.7563 20.7777 16.6738 20.5495C16.4171 19.8013 16.4263 19.0622 16.6829 18.3139C16.8388 17.8668 16.7196 17.4562 16.3896 17.1277C16.0596 16.7992 15.6471 16.6805 15.198 16.8265C14.4463 17.082 13.7038 17.1185 12.9522 16.8357C11.3572 16.2334 10.5506 14.4358 11.1922 12.8572C11.3847 12.3918 11.2472 12.0268 10.9447 11.6983C10.6147 11.3515 10.1931 11.2055 9.71644 11.3789C8.94646 11.6618 8.17648 11.68 7.41566 11.3698C5.92154 10.7766 5.14239 9.11589 5.63738 7.60114C6.13236 6.06814 7.73649 5.17389 9.30395 5.56626C9.44144 5.60276 9.57894 5.63014 9.70727 5.66664C10.1564 5.81264 10.5506 5.70314 10.8806 5.38376C11.2197 5.05526 11.3206 4.64464 11.1831 4.19751C11.0181 3.64088 10.9356 3.09338 11.0364 2.50938C11.2747 1.08588 12.5764 0 14.0613 0C15.5463 0 16.8571 1.08588 17.0862 2.50938C17.3704 4.25226 16.2796 5.78526 14.538 6.08639C14.4188 6.10464 14.2538 6.10464 14.0888 6.11376Z" fill="#0C56D6"/>
<path d="M21.9996 13.9004C22.0085 12.2332 23.3499 10.9137 25.0221 10.9227C26.6765 10.9316 28 12.2778 28 13.9271C27.991 15.5765 26.6496 16.8959 24.9863 16.8959C23.323 16.887 21.9906 15.5586 21.9996 13.9004Z" fill="#0B9DFB"/>
<path d="M19.4997 11.4118C17.8429 11.4118 16.4995 10.0765 16.4995 8.42962C16.4995 6.77383 17.8339 5.43852 19.4908 5.43852C21.1476 5.42962 22.5 6.76493 22.5 8.40291C22.5 10.0676 21.1655 11.4118 19.4997 11.4118Z" fill="#0B9DFB"/>
<path d="M11.4726 19.3844C11.4815 21.0337 10.1491 22.3799 8.49474 22.3888C6.83146 22.3977 5.48116 21.0694 5.47221 19.429C5.46327 17.7708 6.79569 16.4246 8.44109 16.4157C10.1223 16.3979 11.4636 17.7173 11.4726 19.3844Z" fill="#0B9DFB"/>
<path d="M6.0004 13.9371C6.00934 15.5864 4.67692 16.9326 3.02258 16.9416C1.35929 16.9505 0.00898715 15.6221 4.47502e-05 13.9817C-0.00889765 12.3234 1.32352 10.9772 2.96892 10.9683C4.65009 10.9594 5.99145 12.2699 6.0004 13.9371Z" fill="#0B9DFB"/>
</svg>
