<svg width="29" height="28" viewBox="0 0 29 28" fill="none" xmlns="http://www.w3.org/2000/svg">
<path fill-rule="evenodd" clip-rule="evenodd" d="M23.6524 7.74219L20.6741 10.8288L23.6524 13.7007L20.4614 17.1042L14.2923 23.5924L10.9952 20.4015L14.186 17.1042L7.91057 10.8288L4.507 14.1261L7.5915 17.1042L4.46777 20.2167L11.5461 27.2257C12.5893 28.283 15.5414 28.2795 16.7579 27.0793L23.6524 20.2788L27.5006 16.4832C28.717 15.2829 28.331 12.435 27.2878 11.3777L23.6524 7.74219Z" fill="white"/>
<path d="M11.5457 0.847387L1.01585 11.3773C-0.200653 12.5776 -0.346357 15.4254 0.696758 16.4826L4.4674 20.2164L7.59113 17.1038L4.50663 14.1257L7.9102 10.8284L14.292 4.55302L17.3766 7.63755L14.1856 10.8284L20.461 17.1038L23.652 13.7003L20.6738 10.8284L23.652 7.74179L16.7576 0.847424C15.7144 -0.20984 12.7622 -0.352836 11.5457 0.847387Z" fill="#4A4EA4"/>
<path fill-rule="evenodd" clip-rule="evenodd" d="M23.6524 7.74219L20.6741 10.8288L23.6524 13.7007L20.4614 17.1042L14.2923 23.5923L10.9952 20.4015L14.186 17.1042L7.91057 10.8288L4.507 14.1261L7.5915 17.1042L4.46777 20.2167L11.5461 27.2257C12.5893 28.283 15.5414 28.2795 16.7579 27.0793L23.6524 20.2788L27.5006 16.4831C28.717 15.2828 28.331 12.435 27.2878 11.3776L23.6524 7.74219Z" fill="#B1B3E4"/>
<path fill-rule="evenodd" clip-rule="evenodd" d="M20.6737 10.8288L23.6519 7.74219L27.2873 11.3776C28.3305 12.435 28.7165 15.2828 27.5001 16.4831L23.6519 20.2788L20.4609 17.1042L23.6519 13.7007L20.6737 10.8288Z" fill="#6F82DA"/>
</svg>
