<svg width="28" height="28" viewBox="0 0 28 28" fill="none" xmlns="http://www.w3.org/2000/svg">
<path fill-rule="evenodd" clip-rule="evenodd" d="M14.0901 7C10.2112 7 6.972 10.1736 7 14.0516C7.00962 15.3073 7.34913 16.4841 7.93713 17.5H4.09763C3.71088 16.4054 3.5 15.2276 3.5 14C3.5 8.20138 8.20138 3.5 14 3.5C17.1098 3.5 19.9036 4.85187 21.8251 7H14.0901ZM27.552 10.4738C27.2326 9.24175 26.7488 8.07537 26.1266 7C23.7064 2.81487 19.1817 0 14 0C6.26763 0 0 6.26763 0 14C0 15.218 0.15575 16.4001 0.448 17.5263C0.767375 18.7583 1.25125 19.9246 1.87338 21H13.9099C17.7887 21 21.028 17.8264 21 13.9484C20.993 13.0393 20.8127 12.1704 20.4899 11.375H16.3144C17.0257 12.0015 17.4799 12.9132 17.4991 13.9318C17.5367 15.883 15.9127 17.4807 13.9659 17.5C12.0715 17.4816 10.5367 15.9583 10.5009 14.0682C10.4633 12.1135 12.0934 10.5131 14.0455 10.5H23.9024C24.2891 11.5946 24.5 12.7724 24.5 14C24.5 19.7986 19.7986 24.5 14 24.5C11.3374 24.5 8.90662 23.5095 7.05687 21.875H2.42375C4.94287 25.5728 9.18838 28 14 28C21.7324 28 28 21.7324 28 14C28 12.782 27.8442 11.5999 27.552 10.4738Z" fill="#25D56F"/>
</svg>
