<svg width="31" height="28" viewBox="0 0 31 28" fill="none" xmlns="http://www.w3.org/2000/svg">
<path d="M30.9257 0.218387C30.9257 -0.0334699 30.9608 0.00167291 30.7119 0.00167291C25.6279 0.00167291 20.5439 0.00167291 15.4599 0.00167291C10.3759 0.00167291 5.29193 0.00167291 0.207929 0.00167291C0.155214 0.00167291 0.105428 0.00167291 0.0527139 0.00167291C0.0204996 0.00167291 0 0.0192443 0 0.0543872C0 0.107101 0 0.156887 0 0.209601C0 5.27896 0 10.3483 0 15.4177C0 19.547 0 23.6733 0 27.8026C0 27.8494 1.78702e-07 27.8963 0.00292875 27.9432C0.00292875 27.9754 0.0234284 27.9959 0.0556427 27.9959C0.108357 27.9988 0.158143 27.9988 0.210857 27.9988C10.3818 27.9988 20.5556 27.9988 30.7266 27.9988C30.9579 27.9988 30.9257 28.0281 30.9257 27.7967C30.9257 18.604 30.9257 9.41117 30.9257 0.218387ZM14.4056 11.7218C14.3646 11.7247 14.3207 11.7247 14.2797 11.7247C13.5476 11.7247 12.8184 11.7247 12.0862 11.7247C11.3511 11.7247 10.6161 11.7247 9.881 11.7247C9.84 11.7247 9.79607 11.7247 9.75507 11.7247C9.71992 11.7218 9.70235 11.7042 9.70528 11.672C9.70528 11.6369 9.72871 11.6222 9.758 11.6222C9.88393 11.6164 10.0099 11.59 10.1329 11.5637C10.2793 11.5315 10.4199 11.4817 10.5487 11.3997C10.6512 11.3352 10.7303 11.2532 10.7684 11.1361C10.8064 11.0219 10.7889 10.9165 10.7391 10.8081C10.619 10.5533 10.5019 10.2985 10.3847 10.0437C10.2793 9.80945 10.1739 9.57224 10.0684 9.33795C10.0538 9.30281 10.0391 9.2706 10.0216 9.23545C10.0099 9.21495 9.99228 9.20031 9.96592 9.20031C9.93371 9.20031 9.9015 9.20031 9.86635 9.20031C8.8765 9.20031 7.88957 9.20031 6.89971 9.20031C6.75621 9.20031 6.77378 9.1886 6.71521 9.32038C6.51314 9.7831 6.31107 10.2487 6.10607 10.7085C6.04457 10.8462 6.05921 10.9721 6.12364 11.098C6.19685 11.2415 6.31107 11.3411 6.45164 11.4172C6.6215 11.511 6.806 11.5637 6.99636 11.593C7.07543 11.6047 7.1545 11.6135 7.23357 11.6252C7.25993 11.6281 7.27457 11.6457 7.27457 11.672C7.2775 11.7042 7.25993 11.7247 7.22478 11.7277C7.18671 11.7306 7.14864 11.7306 7.1135 11.7306C6.14414 11.7306 5.17478 11.7306 4.20543 11.7306C4.16735 11.7306 4.12928 11.7306 4.09414 11.7277C4.06778 11.7277 4.05021 11.713 4.04728 11.6867C4.04436 11.6574 4.05021 11.631 4.08536 11.6222C4.14686 11.6047 4.21128 11.5871 4.27278 11.5637C4.56564 11.4582 4.8175 11.2972 5.0225 11.06C5.07521 10.9985 5.11914 10.934 5.15721 10.8637C5.30071 10.606 5.44714 10.3483 5.58185 10.0877C6.24957 8.81374 6.888 7.52517 7.52643 6.23953C7.98621 5.3141 8.44014 4.38281 8.897 3.45446C8.98485 3.27874 9.07271 3.10303 9.15471 2.92439C9.184 2.85703 9.22793 2.8336 9.29821 2.83946C9.31578 2.84239 9.33628 2.83946 9.35385 2.83946C9.38314 2.84239 9.40657 2.85117 9.42121 2.88046C9.43878 2.91853 9.45928 2.9566 9.47685 2.99467C10.8094 5.65674 12.1419 8.32174 13.4685 10.9867C13.6061 11.262 13.8141 11.4348 14.0923 11.5402C14.1948 11.5783 14.2973 11.6047 14.4027 11.6252C14.4291 11.631 14.4437 11.6427 14.4466 11.672C14.4525 11.6955 14.4379 11.7218 14.4056 11.7218ZM16.318 12.0732C15.6679 12.082 15.1144 11.5315 15.1114 10.8667C15.1085 10.2312 15.6239 9.64838 16.3268 9.65424C17.0033 9.65717 17.5333 10.1931 17.5333 10.8637C17.5363 11.593 16.9301 12.0879 16.318 12.0732ZM23.5252 11.7775C23.493 11.7804 23.4608 11.7775 23.4256 11.7775C21.7915 11.7775 20.1574 11.7775 18.5203 11.7775C18.5056 11.7775 18.491 11.7775 18.4793 11.7775C18.4383 11.7745 18.3856 11.795 18.3621 11.754C18.3358 11.7101 18.3475 11.6545 18.3563 11.6047C18.3592 11.5842 18.3768 11.5754 18.3973 11.5754C18.45 11.5725 18.4998 11.5695 18.5525 11.5666C18.9566 11.5344 19.3198 11.4026 19.6302 11.1361C19.6976 11.0775 19.7561 11.0102 19.8118 10.9428C19.8498 10.896 19.8674 10.8462 19.8645 10.7876C19.8616 10.7583 19.8645 10.732 19.8645 10.7027C19.8645 8.50917 19.8645 6.3186 19.8645 4.1251C19.8645 4.04896 19.8616 3.97574 19.8499 3.90253C19.8206 3.70631 19.6507 3.5306 19.4545 3.49253C19.3959 3.48081 19.3344 3.47496 19.2729 3.47203C19.0035 3.4486 18.7311 3.43103 18.4617 3.40467C18.2684 3.3871 18.2977 3.40174 18.2977 3.22603C18.2977 3.0181 18.2743 3.04153 18.4881 3.04153C19.3022 3.04153 20.1193 3.04153 20.9334 3.04153C21.7534 3.04153 22.5734 3.04153 23.3934 3.04153C23.5662 3.04153 23.5545 3.02981 23.5545 3.19967C23.5545 3.26117 23.5545 3.32267 23.5545 3.38124C23.5545 3.42517 23.5398 3.43689 23.493 3.43981C23.4783 3.43981 23.4637 3.43981 23.452 3.43981C23.2499 3.43396 23.0508 3.45739 22.8487 3.4691C22.7316 3.47789 22.6173 3.49546 22.5031 3.52181C22.3918 3.54817 22.304 3.60381 22.2396 3.6946C22.1166 3.86446 22.0404 4.04896 22.0404 4.26567C22.0433 6.46796 22.0404 8.67024 22.0404 10.8696C22.0404 10.893 22.0433 10.9165 22.0404 10.9399C22.0316 11.0072 22.0638 11.057 22.1107 11.098C22.2015 11.18 22.3011 11.2503 22.4094 11.306C22.6466 11.426 22.8985 11.4905 23.1591 11.5344C23.2851 11.5549 23.411 11.5637 23.5369 11.5695C23.5867 11.5725 23.6013 11.59 23.6013 11.6398C23.6013 11.6574 23.6013 11.6779 23.6013 11.6955C23.5926 11.7599 23.5808 11.7745 23.5252 11.7775ZM25.6601 12.1289C25.051 12.123 24.4594 11.631 24.4594 10.9135C24.4623 10.2077 25.0451 9.7011 25.6836 9.70695C26.3454 9.71281 26.8931 10.2605 26.8813 10.9223C26.8843 11.6017 26.3103 12.1347 25.6601 12.1289Z" fill="#525CEF"/>
<path d="M9.70838 8.74335C9.30131 7.86478 8.89424 6.98621 8.48424 6.10764C8.47253 6.08421 8.4696 6.05493 8.44031 6.04028C8.39931 6.06371 8.39346 6.10764 8.37296 6.14571C7.94538 6.99792 7.51781 7.85307 7.09024 8.70821C7.07853 8.73457 7.06388 8.758 7.05217 8.78435C7.0346 8.82535 7.04338 8.84 7.0961 8.84292C7.11367 8.84292 7.13417 8.84292 7.15174 8.84292C7.97467 8.84292 8.80053 8.84292 9.62345 8.84292C9.65274 8.84292 9.6791 8.84292 9.70838 8.84C9.72303 8.83707 9.73474 8.82535 9.73181 8.81071C9.72888 8.78728 9.71717 8.76678 9.70838 8.74335Z" fill="#525CEF"/>
<path d="M15.4161 14.9608C20.1809 14.9608 24.9457 14.9608 29.7105 14.9608C29.9448 14.9608 29.9125 14.9285 29.9125 15.1599C29.9125 19.0022 29.9125 22.8445 29.9125 26.6868C29.9125 26.9181 29.9448 26.8859 29.7105 26.8859C20.1721 26.8859 10.6338 26.8859 1.09248 26.8859C0.878696 26.8859 0.902124 26.9123 0.902124 26.7014C0.902124 22.8503 0.902124 18.9993 0.902124 15.1482C0.902124 14.9344 0.881625 14.9608 1.08955 14.9608C5.86898 14.9608 10.6425 14.9608 15.4161 14.9608Z" fill="white"/>
<path d="M24.2839 23.9457C24.281 23.9252 24.2781 23.9047 24.2781 23.8813C24.2781 23.808 24.2839 23.8051 24.3572 23.7992C24.4743 23.7934 24.5914 23.7905 24.7057 23.7641C24.9019 23.7202 25.0161 23.606 25.0483 23.4039C25.0659 23.3014 25.0747 23.1989 25.0747 23.0964C25.0747 22.5341 25.0747 21.9718 25.0776 21.4095C25.0776 21.3949 25.0776 21.3803 25.0776 21.3685C25.0776 21.3363 25.06 21.3188 25.0249 21.3188C25.0014 21.3188 24.978 21.3188 24.9546 21.3188C24.1727 21.3188 23.3907 21.3188 22.6088 21.3188C22.4799 21.3188 22.4858 21.31 22.4858 21.4388C22.4858 21.9718 22.4858 22.5078 22.4858 23.0408C22.4858 23.1579 22.4917 23.275 22.5122 23.3892C22.5473 23.603 22.6498 23.7143 22.8577 23.7612C22.9309 23.7787 23.0042 23.7875 23.0803 23.7905C23.1418 23.7934 23.2033 23.7963 23.2619 23.7992C23.2824 23.7992 23.297 23.8139 23.2999 23.8344C23.2999 23.8695 23.3087 23.9076 23.2941 23.9427C23.1887 23.9574 20.9219 23.9633 20.7345 23.9486C20.7082 23.9193 20.7228 23.8783 20.7228 23.8432C20.7228 23.8168 20.7374 23.7992 20.7638 23.7992C20.8341 23.7963 20.9044 23.7905 20.9747 23.7905C21.0449 23.7875 21.1152 23.7758 21.1826 23.7583C21.3495 23.7173 21.452 23.6118 21.4784 23.442C21.4901 23.3717 21.4989 23.3014 21.5018 23.234C21.5077 23.155 21.5077 23.0759 21.5077 22.9939C21.5077 21.8195 21.5077 20.6423 21.5077 19.4679C21.5077 19.3273 21.5077 19.1868 21.4813 19.0491C21.4403 18.8265 21.329 18.7123 21.1035 18.6772C20.9981 18.6596 20.8897 18.6479 20.7814 18.6479C20.7228 18.6479 20.7199 18.642 20.7199 18.5805C20.7199 18.5659 20.7199 18.5513 20.7199 18.5395C20.7199 18.5161 20.7374 18.5073 20.755 18.5073C20.7843 18.5044 20.8107 18.5044 20.8399 18.5044C21.6189 18.5044 22.395 18.5044 23.174 18.5044C23.1974 18.5044 23.2209 18.5044 23.2443 18.5044C23.2941 18.5073 23.2999 18.5132 23.3029 18.563C23.3029 18.5805 23.3058 18.601 23.2999 18.6186C23.297 18.6303 23.2853 18.642 23.2736 18.645C23.2472 18.6508 23.2179 18.6479 23.1887 18.6508C23.0949 18.6596 23.0012 18.6655 22.9104 18.6801C22.6762 18.7211 22.5532 18.8529 22.5151 19.0901C22.4975 19.1955 22.4887 19.3039 22.4887 19.4123C22.4887 19.913 22.4887 20.4138 22.4887 20.9146C22.4887 20.9439 22.4887 20.9703 22.4946 20.9995C22.4975 21.0113 22.5092 21.023 22.5209 21.0259C22.5444 21.0318 22.5678 21.0288 22.5912 21.0288C23.3878 21.0288 24.1844 21.0288 24.9809 21.0288C25.0044 21.0288 25.0278 21.0288 25.0512 21.0259C25.0629 21.023 25.0747 21.0083 25.0776 20.9966C25.0834 20.9732 25.0834 20.9498 25.0834 20.9263C25.0834 20.405 25.0834 19.8867 25.0805 19.3654C25.0805 19.2541 25.0747 19.1399 25.0512 19.0315C25.0161 18.8529 24.9165 18.7358 24.7379 18.6918C24.609 18.6596 24.4802 18.6479 24.3484 18.6479C24.3249 18.6479 24.2927 18.6508 24.2869 18.6274C24.2781 18.5923 24.2752 18.5542 24.2898 18.519C24.2927 18.5132 24.3044 18.5073 24.3132 18.5073C24.3454 18.5044 24.3777 18.5044 24.4128 18.5044C25.1859 18.5044 25.9591 18.5044 26.7322 18.5044C26.7557 18.5044 26.7791 18.5044 26.8025 18.5044C26.8552 18.5073 26.8611 18.5132 26.864 18.56C26.864 18.5688 26.864 18.5776 26.864 18.5893C26.864 18.6391 26.8552 18.6479 26.8084 18.6479C26.7059 18.6479 26.6034 18.6567 26.5009 18.6743C26.4628 18.6801 26.4277 18.6889 26.3925 18.6977C26.2549 18.7358 26.167 18.8295 26.126 18.9613C26.1084 19.0198 26.0967 19.0784 26.0909 19.1399C26.0821 19.2365 26.0762 19.3361 26.0762 19.4357C26.0762 20.6305 26.0762 21.8254 26.0762 23.0203C26.0762 23.1228 26.0821 23.2253 26.0909 23.3278C26.0967 23.3893 26.1084 23.4478 26.126 23.5064C26.167 23.6411 26.2578 23.7319 26.3984 23.7641C26.4569 23.7788 26.5184 23.7875 26.577 23.7905C26.6473 23.7963 26.7176 23.7963 26.7879 23.7992C26.8582 23.8022 26.864 23.811 26.864 23.8842C26.864 23.893 26.864 23.9018 26.864 23.9135C26.8611 23.9398 26.8494 23.9574 26.823 23.9574C26.7937 23.9574 26.7674 23.9574 26.7381 23.9574C25.9591 23.9574 25.183 23.9574 24.404 23.9574C24.3659 23.9603 24.3279 23.9691 24.2839 23.9457Z" fill="black"/>
<path d="M14.2417 22.6043C14.2358 22.6248 14.23 22.6482 14.2212 22.6687C14.0572 23.0758 13.8932 23.4828 13.7292 23.8928C13.7087 23.9456 13.6794 23.9661 13.6267 23.9631C13.5974 23.9602 13.571 23.9631 13.5418 23.9631C12.0482 23.9631 10.5517 23.9631 9.05812 23.9631C9.02883 23.9631 9.00248 23.9631 8.97319 23.9631C8.89412 23.9602 8.88826 23.9543 8.89119 23.8723C8.89412 23.8196 8.9029 23.8079 8.95562 23.805C9.0259 23.8021 9.09619 23.7962 9.16648 23.7962C9.24555 23.7962 9.32462 23.7816 9.40369 23.764C9.5999 23.723 9.71412 23.6 9.74926 23.4038C9.76683 23.3071 9.77855 23.2105 9.77855 23.1109C9.77855 22.9996 9.77855 22.8854 9.77855 22.7741C9.77855 21.6408 9.77855 20.5074 9.77855 19.3741C9.77855 19.2628 9.76976 19.1486 9.75512 19.0373C9.72876 18.8616 9.63212 18.7503 9.45933 18.7034C9.34512 18.6712 9.22797 18.6653 9.11083 18.6566C9.06397 18.6536 9.01712 18.6536 8.97026 18.6536C8.89705 18.6507 8.88826 18.6448 8.89119 18.5746C8.89119 18.5189 8.89705 18.5101 8.95562 18.5101C8.98783 18.5101 9.02005 18.5101 9.05519 18.5101C10.5488 18.5101 12.0453 18.5101 13.5388 18.5101C13.7145 18.5101 13.6999 18.4808 13.7116 18.6741C13.7292 18.9553 13.7468 19.2364 13.7643 19.5146C13.7673 19.5703 13.7643 19.6259 13.7643 19.6816C13.7438 19.7079 13.7145 19.6991 13.6882 19.6991C13.6033 19.6991 13.6033 19.6991 13.574 19.6113C13.5359 19.5 13.4978 19.3887 13.4568 19.2803C13.366 19.0373 13.1903 18.8938 12.9326 18.8469C12.7481 18.8118 12.5607 18.803 12.3733 18.803C11.8403 18.8001 11.3043 18.803 10.7713 18.803C10.7479 18.803 10.7245 18.803 10.701 18.8059C10.6805 18.8088 10.6659 18.8206 10.6659 18.8411C10.663 18.8645 10.663 18.8879 10.663 18.9113C10.663 19.5615 10.663 20.2146 10.663 20.8647C10.663 20.8823 10.663 20.9028 10.6659 20.9203C10.6688 20.9408 10.6805 20.9555 10.701 20.9555C10.7303 20.9584 10.7567 20.9584 10.786 20.9584C11.2165 20.9584 11.647 20.9584 12.0804 20.9584C12.2063 20.9584 12.3323 20.9526 12.4582 20.9321C12.5197 20.9233 12.5783 20.9086 12.6339 20.8852C12.7774 20.8325 12.877 20.7329 12.9326 20.5894C12.9736 20.4811 13.0029 20.3668 13.0175 20.2497C13.0293 20.1648 13.0498 20.1677 13.1171 20.1706C13.1259 20.1706 13.1347 20.1706 13.1464 20.1706C13.1962 20.1736 13.205 20.1823 13.2079 20.2263C13.2079 20.2438 13.2079 20.2643 13.2079 20.2819C13.2079 20.8442 13.2079 21.4065 13.2079 21.9688C13.2079 22.083 13.202 22.0859 13.0878 22.0801C13.041 22.0771 13.0322 22.0713 13.0234 22.0244C13.0058 21.9366 12.9853 21.8516 12.9678 21.7638C12.9619 21.7403 12.956 21.7198 12.9473 21.6964C12.8799 21.4709 12.7247 21.345 12.4992 21.3011C12.4084 21.2835 12.3147 21.2718 12.221 21.2718C11.729 21.2688 11.237 21.2688 10.745 21.2688C10.7303 21.2688 10.7157 21.2688 10.704 21.2718C10.6835 21.2747 10.6718 21.2864 10.6688 21.3098C10.6659 21.3421 10.6659 21.3743 10.6659 21.4094C10.6659 21.9658 10.6659 22.5252 10.6659 23.0816C10.6659 23.1753 10.6718 23.2691 10.6835 23.3628C10.6981 23.5092 10.7772 23.6029 10.9178 23.6439C10.9968 23.6673 11.0759 23.6732 11.155 23.6732C11.6382 23.6732 12.1214 23.6878 12.6017 23.6615C12.7364 23.6556 12.8711 23.6293 13.0029 23.5941C13.284 23.518 13.5125 23.3628 13.6882 23.1314C13.7965 22.9908 13.8961 22.8415 13.9957 22.6951C14.0718 22.5838 14.0513 22.6013 14.189 22.5984C14.2036 22.5984 14.2153 22.6013 14.23 22.6043C14.23 22.5955 14.2329 22.5984 14.2417 22.6043Z" fill="black"/>
<path d="M19.9197 19.3566C19.9402 19.6289 19.9578 19.8984 19.9783 20.1707C19.9812 20.2176 19.9695 20.2322 19.9256 20.2322C19.867 20.2352 19.8524 20.2264 19.8289 20.1737C19.7879 20.0682 19.7499 19.9628 19.703 19.8603C19.5917 19.6202 19.4511 19.4005 19.2637 19.2131C18.9767 18.9261 18.6311 18.7533 18.227 18.6947C17.8844 18.6449 17.5446 18.6537 17.2108 18.7533C16.7744 18.8851 16.4376 19.1428 16.1946 19.5264C16.0247 19.7959 15.9193 20.0887 15.8519 20.3962C15.7611 20.8062 15.7377 21.2221 15.7699 21.6409C15.7992 21.9923 15.8812 22.3349 16.0452 22.6483C16.3439 23.2164 16.8154 23.5532 17.4421 23.6733C17.7848 23.7407 18.1304 23.7436 18.4759 23.6792C18.8537 23.6089 19.1817 23.4361 19.4599 23.1725C19.6064 23.0349 19.7381 22.8797 19.8641 22.7244C19.8875 22.6952 19.9109 22.6659 19.9343 22.6366C19.9724 22.5897 19.9783 22.5897 20.0281 22.619C20.113 22.6688 20.113 22.6717 20.0574 22.7567C19.8143 23.1315 19.5126 23.4478 19.1349 23.6879C18.7893 23.9076 18.4086 24.0277 18.0015 24.0687C17.7496 24.095 17.4949 24.095 17.243 24.0657C16.423 23.9691 15.7377 23.6264 15.2486 22.947C14.9792 22.5751 14.8299 22.1563 14.7742 21.7024C14.7215 21.2689 14.7449 20.8414 14.8767 20.4255C15.193 19.4357 15.8636 18.8031 16.8535 18.5044C17.2518 18.3843 17.6647 18.3609 18.0776 18.396C18.3734 18.4194 18.6575 18.4956 18.9357 18.601C19.0411 18.6391 19.1466 18.6772 19.2491 18.724C19.3486 18.7679 19.4306 18.7445 19.5097 18.6859C19.5566 18.6508 19.5917 18.6069 19.6151 18.5571C19.6327 18.519 19.6532 18.4809 19.6649 18.4399C19.6766 18.4019 19.6942 18.3843 19.7323 18.3843C19.8582 18.3843 19.8406 18.3814 19.8494 18.4839C19.867 18.6947 19.8787 18.9056 19.8934 19.1135C19.908 19.1984 19.9138 19.2775 19.9197 19.3566C19.9197 19.3566 19.9168 19.3566 19.9197 19.3566Z" fill="black"/>
<path d="M3.55224 19.7723C3.53174 19.7342 3.54053 19.6962 3.54346 19.661C3.56103 19.295 3.5786 18.9318 3.59617 18.5658C3.5991 18.5043 3.60203 18.5043 3.66353 18.5013C3.69574 18.5013 3.72796 18.5013 3.7631 18.5013C5.33574 18.5013 6.91131 18.5013 8.48395 18.5013C8.53081 18.5013 8.58352 18.4837 8.61867 18.513C8.65674 18.5452 8.63917 18.6009 8.6421 18.6448C8.65967 18.9992 8.67431 19.3565 8.69188 19.7108C8.69188 19.7342 8.69774 19.7665 8.67431 19.7723C8.6216 19.784 8.56302 19.7899 8.51031 19.7665C8.50152 19.7635 8.49567 19.743 8.49274 19.7313C8.48102 19.6523 8.46345 19.5761 8.44003 19.5C8.33167 19.1485 8.09738 18.9406 7.73717 18.8733C7.63174 18.8528 7.52338 18.841 7.41503 18.841C7.15731 18.844 6.8996 18.841 6.64188 18.841C6.61845 18.841 6.59503 18.841 6.5716 18.844C6.5511 18.844 6.53645 18.8586 6.53645 18.8791C6.53353 18.9113 6.53352 18.9435 6.53352 18.9787C6.53352 20.3287 6.53352 21.6759 6.53352 23.026C6.53352 23.1372 6.54231 23.2515 6.5511 23.3627C6.55403 23.395 6.55988 23.4272 6.56867 23.4594C6.60381 23.6234 6.70924 23.72 6.86738 23.7581C6.9406 23.7757 7.01381 23.7845 7.08995 23.7903C7.16902 23.7962 7.2481 23.7962 7.32717 23.802C7.37403 23.805 7.38281 23.8167 7.38281 23.8635C7.38867 23.9514 7.38281 23.9602 7.29203 23.9602C6.56281 23.9602 5.83067 23.9602 5.10146 23.9602C5.02238 23.9602 4.94331 23.9602 4.86131 23.9602C4.8291 23.9602 4.8086 23.9426 4.81153 23.9075C4.81153 23.8987 4.81153 23.8899 4.81153 23.8782C4.81153 23.8108 4.81738 23.805 4.88181 23.7991C4.9521 23.7962 5.02238 23.7962 5.09267 23.7903C5.16588 23.7845 5.24203 23.7757 5.31524 23.7581C5.4851 23.7171 5.59345 23.6146 5.63153 23.4389C5.66081 23.2954 5.66374 23.1519 5.66374 23.0055C5.66374 22.3495 5.66374 21.6935 5.66374 21.0375C5.66374 20.3639 5.66374 19.6874 5.66374 19.0138C5.66374 18.9728 5.66374 18.9289 5.66374 18.8879C5.66374 18.8615 5.6491 18.844 5.61981 18.844C5.59638 18.844 5.57295 18.844 5.54953 18.844C5.32988 18.844 5.11024 18.844 4.8906 18.844C4.7266 18.844 4.5626 18.8615 4.40446 18.8996C4.08231 18.9728 3.87731 19.172 3.79824 19.4941C3.78067 19.5702 3.77188 19.6493 3.75724 19.7284C3.74846 19.7723 3.73674 19.784 3.69281 19.784C3.64303 19.784 3.59617 19.7928 3.55224 19.7723Z" fill="black"/>
</svg>
