<svg width="18" height="28" viewBox="0 0 18 28" fill="none" xmlns="http://www.w3.org/2000/svg">
<path d="M1.05283 8.37198L0.00195312 8.13066C0.00195312 8.13066 0.00584431 4.16847 0.00584431 2.27301C0.00584431 2.00056 -0.0097247 1.732 0.0369809 1.45955C0.1265 0.910759 0.433978 0.525438 0.885465 0.233528C1.20073 0.0311371 1.55491 0 1.92467 0C6.19044 0.00389213 10.4562 0.00389237 14.722 0.00389237C14.9361 0.00389237 15.1462 0.0077845 15.3603 0.00389237C16.1932 -0.00778403 16.7965 0.618849 17.0184 1.29219C17.0651 1.44009 17.069 1.60745 17.069 1.76314C17.0728 6.06394 17.069 10.3609 17.0767 14.6617C17.0767 14.829 16.9833 14.8874 16.886 14.938C16.2827 15.2377 15.6405 15.3 14.9789 15.2221C14.6831 15.1871 14.399 15.1054 14.1654 14.9185C13.9552 14.7473 13.7684 14.541 13.5738 14.3464C12.9005 13.6692 12.2271 12.9958 11.5616 12.3147C11.3086 12.0578 11.0673 11.7893 10.826 11.5207C10.3356 10.9797 9.88018 10.9564 9.2808 11.3261C8.86045 11.5869 8.47902 11.9099 8.0431 12.1512C7.73173 12.3225 7.41647 12.4899 7.04671 12.4937C6.8054 12.4743 6.54073 12.3458 6.38116 12.0267C6.13984 11.5518 6.49792 10.8123 6.96887 10.5243C7.90298 9.95218 8.8332 9.36836 9.74396 8.7573C10.0125 8.57826 10.285 8.37976 10.5886 8.27078C11.0556 8.09953 11.4876 8.28635 11.8768 8.55101C12.5891 9.03753 13.1963 9.65249 13.8307 10.2285C14.0525 10.427 14.6403 10.9174 14.6403 10.9174C14.6403 10.9174 14.2316 10.2441 14.0603 9.98332C13.9786 9.85877 13.9981 9.80817 14.146 9.77704C14.5819 9.68363 15.7456 9.44231 15.8896 9.37225C15.9869 9.32555 16.0259 9.27106 16.0259 9.16208C16.0181 8.85071 16.022 8.53934 16.022 8.22408C16.022 6.2819 16.0259 4.34362 16.022 2.40145C16.022 1.76314 15.769 1.24548 15.2046 0.914651C15.0022 0.793995 14.7804 0.720044 14.5313 0.720044C10.538 0.723937 6.54463 0.716152 2.5513 0.727829C1.9558 0.727829 1.53545 1.05866 1.25133 1.56853C1.09175 1.85655 1.05672 2.1757 1.05672 2.50264C1.05283 4.38254 1.05283 8.37198 1.05283 8.37198Z" fill="#11A1DD"/>
<path d="M7.22163 17.3317C7.19828 17.6353 7.02702 17.861 6.82852 18.0712C6.68451 18.223 6.52883 18.3631 6.38871 18.5188C6.24081 18.6823 6.0501 18.7601 5.84771 18.7874C5.61029 18.8224 5.17826 18.6161 5.0576 18.2892C4.90192 17.8727 5.05371 17.5497 5.33005 17.2617C5.50909 17.0748 5.69202 16.8919 5.88274 16.7206C6.29141 16.3509 6.8908 16.5222 7.10487 16.9853C7.15936 17.0904 7.23331 17.1994 7.22163 17.3317Z" fill="#282828"/>
<path d="M7.11258 19.9939C6.80121 19.9784 6.54433 19.8344 6.40811 19.5619C6.27188 19.2895 6.25631 18.982 6.45481 18.7251C6.68445 18.4293 6.92965 18.1491 7.21378 17.9078C7.50179 17.6664 7.82484 17.6625 8.12843 17.8455C8.37363 17.9934 8.51764 18.2386 8.52932 18.5305C8.54099 18.8341 8.35806 19.0481 8.16735 19.2544C8.01945 19.414 7.87544 19.5697 7.71975 19.7215C7.55628 19.8811 7.35778 19.9939 7.11258 19.9939Z" fill="#282828"/>
<path d="M5.0613 15.3233C5.58285 15.296 5.86308 15.7241 5.89422 16.1017C5.91757 16.3975 5.71907 16.6232 5.52446 16.8334C5.36878 17.0008 5.22866 17.1837 5.0613 17.3316C4.73825 17.6157 4.29066 17.6702 3.9209 17.3394C3.64846 17.0981 3.55115 16.6505 3.83139 16.2885C4.08827 15.9577 4.36461 15.6346 4.71879 15.3933C4.83166 15.3194 4.95232 15.3233 5.0613 15.3233Z" fill="#282828"/>
<path d="M3.812 14.1167C4.11559 14.1167 4.32966 14.2724 4.46199 14.5176C4.62157 14.8095 4.61378 15.1131 4.39582 15.3817C4.15451 15.6775 3.90542 15.9733 3.60183 16.2107C3.40333 16.3664 2.94795 16.3703 2.73778 16.2379C2.42251 16.0394 2.30964 15.6658 2.36024 15.3933C2.40305 15.1676 2.53928 15.008 2.67939 14.8523C2.81951 14.6967 2.96352 14.5449 3.10753 14.3931C3.30603 14.1907 3.53177 14.0856 3.812 14.1167Z" fill="#282828"/>
<path d="M17.0687 16.0316L16.0217 16.4325C16.0217 16.4325 16.0217 20.4648 16.0256 22.3447C16.0256 22.5587 15.9867 22.7728 15.9089 22.9635C15.6209 23.668 15.0799 24.0027 14.3793 24.0027C10.4871 24.0144 6.59111 24.0105 2.69898 24.0066C2.48491 24.0066 2.27084 23.9677 2.08013 23.8859C1.4029 23.594 1.0565 23.0569 1.05261 22.3252C1.04482 19.8848 1.04871 17.4484 1.04871 15.008C1.04871 14.9613 1.04871 14.7511 1.04871 14.7511L1.91277 14.934C1.91277 14.934 2.42653 14.3424 2.68341 14.0661C3.09597 13.6185 3.59027 13.4161 4.20134 13.6419C4.68007 13.8209 4.97977 14.14 5.0615 14.646C5.07707 14.7278 5.10042 14.755 5.18216 14.7667C5.77765 14.8367 6.28752 15.226 6.38093 15.8643C6.39261 15.9577 6.45489 15.9538 6.52105 15.9655C7.11655 16.0861 7.57193 16.3858 7.69647 17.0553C7.71204 17.1409 7.77043 17.1681 7.84438 17.1915C8.00785 17.2421 8.17521 17.2615 8.33868 17.3394C8.92639 17.6274 9.23387 18.398 8.96531 19.0286C8.89525 19.1881 8.94196 19.2699 9.03537 19.3633C9.27279 19.6046 9.67757 19.7214 9.90721 19.6046C10.3743 19.3711 10.4832 18.8028 10.1252 18.437C9.94223 18.2501 9.75931 18.0594 9.57248 17.8765C9.52578 17.8298 9.4635 17.7831 9.53745 17.7208C9.59584 17.6741 9.662 17.6936 9.7126 17.7519C9.79434 17.8454 9.87218 17.9466 9.96948 18.0283C10.1485 18.184 10.2808 18.3941 10.5377 18.4525C10.8141 18.5148 11.1099 18.4175 11.2811 18.2112C11.4446 18.0166 11.4485 17.5924 11.3201 17.4094C11.1293 17.137 10.8608 16.9346 10.6428 16.6894C10.6039 16.6466 10.5183 16.6077 10.6 16.5337C10.6623 16.4792 10.7246 16.5026 10.7752 16.5532C10.9036 16.6855 11.032 16.8139 11.1527 16.9502C11.3979 17.2304 11.6742 17.3861 12.0596 17.2615C12.4604 17.1331 12.6395 16.6038 12.406 16.2418C12.2191 15.9538 11.9467 15.7553 11.7287 15.5023C11.6859 15.4556 11.5847 15.4128 11.6781 15.331C11.7482 15.2727 11.8105 15.3155 11.8649 15.3739C12.0634 15.5762 12.2581 15.7825 12.4643 15.9771C12.5655 16.0705 12.6979 16.1367 12.8458 16.1484C13.126 16.1756 13.414 15.9771 13.5425 15.7553C13.6787 15.5179 13.5969 15.1403 13.3907 14.9224C12.3865 13.8481 11.2928 12.8673 10.3159 11.7697C10.2147 11.653 10.0434 11.5401 9.86439 11.6218C9.68925 11.6997 9.52189 11.8048 9.36231 11.9137C8.7746 12.3146 8.21024 12.7428 7.51744 12.9724C7.07373 13.1203 6.51327 13.058 6.20579 12.7428C5.94891 12.4781 5.8049 12.1628 5.75819 11.7814C5.68035 11.1704 6.09292 10.4231 6.53662 10.1662C6.81296 10.0066 7.07373 9.81589 7.34229 9.64463C7.94946 9.25931 8.55664 8.87788 9.16381 8.49645C9.39734 8.34855 9.63087 8.19676 9.88385 8.03718C9.21441 7.95545 8.58777 8.07611 7.96892 8.16173C7.45127 8.23179 6.93751 8.3758 6.45878 8.61322C6.06178 8.81172 5.68035 9.04135 5.29503 9.2671C4.95252 9.4656 4.62169 9.68356 4.24805 9.82756C4.11961 9.87427 3.93278 9.91319 3.93278 9.91319L3.21274 11.4817L3.38789 9.89762C3.38789 9.89762 2.4421 9.76529 2.03342 9.67188C1.73373 9.60571 1.43014 9.54344 1.13045 9.47727C0.760696 9.39165 0.390943 9.3177 0.00172984 9.23207C0.00172984 9.30991 0.00172984 9.37608 0.00172984 9.44224C0.00172984 12.4197 -0.0021623 15.3972 0.00172984 18.3708C0.00562197 20.1767 -0.0060549 21.9827 0.0134058 23.7886C0.02119 24.5826 0.0134062 25.3805 0.00172984 26.1745C-0.00605443 26.6766 0.153521 27.1203 0.515489 27.4784C0.803507 27.7664 1.14602 27.9883 1.5508 27.9883C6.19022 27.9999 10.8257 27.9921 15.4652 27.9999C15.6792 27.9999 15.8816 27.9377 16.049 27.8481C16.7262 27.4901 17.0765 26.9179 17.0726 26.1317C17.0648 22.8584 17.0687 16.0316 17.0687 16.0316ZM9.0198 26.879C8.69286 26.8829 8.36981 26.8868 8.04288 26.8712C7.78989 26.8595 7.54858 26.6922 7.57193 26.3964C7.57971 26.1317 7.57971 25.7075 7.57971 25.3611C7.57971 25.0925 7.74318 24.9057 8.00784 24.9018C8.35814 24.894 8.71232 24.894 9.06261 24.9018C9.32728 24.9096 9.49075 25.0964 9.49075 25.365C9.49075 25.5362 9.49075 26.229 9.49075 26.4003C9.49075 26.7272 9.35063 26.8751 9.0198 26.879Z" fill="#282828"/>
</svg>
