<svg width="45" height="28" viewBox="0 0 45 28" fill="none" xmlns="http://www.w3.org/2000/svg">
<path d="M15.9689 27.9844V24.6173C15.9689 24.6173 29.7698 24.6173 36.4697 24.6173C38.5064 24.6173 40.2482 23.4001 40.982 21.5142C42.0552 18.7506 40.3888 15.6544 37.4812 15.0818C37.1897 15.0235 36.8537 15.0441 36.5657 14.9721C35.6159 14.7458 35.0845 13.8166 35.3176 12.8668C35.7634 11.0529 34.6764 9.33854 32.8352 9.08481C31.9505 8.96137 31.1379 9.19796 30.4624 9.81172C29.7252 10.4838 28.82 10.5798 28.0828 9.99345C27.74 9.71914 27.5171 9.31454 27.4554 8.88594C27.0816 6.2389 25.0003 4.04789 22.3567 3.52672C19.6068 2.98496 16.9461 4.21591 15.6088 6.27319C15.5163 6.42406 15.3345 6.74636 15.3345 6.74636C15.3345 6.74636 11.7514 6.74294 11.6417 6.74294C11.6554 6.68465 12.324 4.57593 14.1002 2.81009C15.3825 1.53801 17.3232 0.478505 19.0274 0.204201C22.1579 -0.378696 24.9729 0.276206 27.4451 2.2992C28.6177 3.25927 29.4955 4.47649 30.1127 5.86173C30.1881 6.03317 30.1916 6.06746 30.387 5.99889C31.2682 5.69372 32.2523 5.60114 33.1746 5.71429C34.7793 5.91317 36.1371 6.60921 37.2206 7.81958C38.071 8.76936 38.479 9.774 38.719 10.9741C38.7636 11.1832 38.7944 11.6153 38.7876 11.797C38.7807 11.989 38.8939 11.9787 39.0619 12.037C41.9009 13.0348 43.8279 15.1915 44.476 17.8797C45.1309 21.0891 44.3251 23.7635 41.9181 25.958C40.6906 27.0758 39.223 27.6964 37.5875 27.933C37.3166 27.9707 37.0423 27.9878 36.768 27.9878C29.9481 27.9844 15.9689 27.9844 15.9689 27.9844Z" fill="#163CF7"/>
<path d="M15.1321 8.1829C14.9435 8.9441 14.8029 9.68472 14.5698 10.3979C14.3058 11.2003 13.6817 11.5946 12.8348 11.5946C11.8165 11.5946 10.7981 11.5877 9.77974 11.598C8.24364 11.6151 6.89269 12.1363 5.71661 13.1238C4.50967 14.1353 3.76561 15.428 3.5016 16.9675C3.18958 18.7779 3.57703 20.4512 4.66739 21.9393C5.70289 23.3519 7.10527 24.2023 8.82311 24.5143C9.23113 24.5897 9.6563 24.6069 10.0746 24.6103C11.4736 24.6206 14.4601 24.6137 14.5732 24.6137C14.5732 25.7453 14.5732 26.8459 14.5732 27.9774C14.4909 27.9808 10.9593 28.0288 9.27914 27.974C7.81847 27.9294 6.44351 27.4871 5.15428 26.7876C4.1325 26.2287 3.23758 25.5052 2.46953 24.6343C1.33459 23.3417 0.587111 21.8501 0.2168 20.1666C0.00764297 19.2134 -0.0437892 18.2465 0.0350733 17.283C0.192798 15.332 0.875131 13.5627 2.08207 12.0163C3.52217 10.175 5.39087 8.98524 7.66417 8.45721C8.35336 8.29605 9.07341 8.21033 9.78317 8.19319C11.4633 8.15547 13.1434 8.17947 14.8235 8.17947C14.9127 8.1829 15.0018 8.1829 15.1321 8.1829Z" fill="#F96421"/>
</svg>
